<?xml version="1.0" encoding="UTF-8"?>
<svg version="1.1" viewBox="0 0 1600 1600" width="1280" height="1280" xmlns="http://www.w3.org/2000/svg">
<path transform="translate(716 126)" d="m0 0c0.68-0.00156 1.36-0.00312 2.06-0.00473 2.28-0.00399 4.55-8.29e-4 6.83 0.00232 1.63-0.00136 3.27-0.00314 4.9-0.00531 4.43-0.00456 8.87-0.00279 13.3 3.79e-4 4.64 0.00253 9.27 1.85e-4 13.9-0.00139 7.78-0.00182 15.6 5.8e-4 23.3 0.00534 9.01 0.00545 18 0.00368 27-0.00183 7.73-0.00453 15.5-0.00518 23.2-0.00256 4.62 0.00156 9.24 0.00176 13.9-0.00154 4.34-0.00288 8.68-8.99e-4 13 0.00489 1.6 0.00133 3.19 9.36e-4 4.79-0.00126 2.17-0.00272 4.34 6.75e-4 6.51 0.00568 1.22 3.77e-4 2.43 7.54e-4 3.69 0.00114 2.83 0.126 2.83 0.126 4.83 1.13 2.78 0.133 5.55 0.21 8.33 0.246 1.7 0.0329 3.4 0.0662 5.11 0.0996 2.69 0.0474 5.37 0.0918 8.06 0.131 2.59 0.0398 5.18 0.0913 7.77 0.144 0.799 0.00841 1.6 0.0168 2.42 0.0255 4.85 0.107 9.15 0.322 12.9 3.81 5.29 7.67 7.77 16.5 10.7 25.3 1.72 5.07 3.79 9.98 5.9 14.9 2.5 5.88 4.77 11.8 6.86 17.8 2.82 8.14 6.06 16 9.5 23.9 1.88 4.46 3.58 8.97 5.31 13.5 0.882 2.27 1.78 4.52 2.75 6.76 1.91 4.4 3.67 8.86 5.44 13.3 0.436 1.08 0.436 1.08 0.882 2.19 2.43 6.03 4.76 12.1 7.06 18.2 2.51 6.63 5.09 13.2 7.85 19.8 3.99 9.46 7.66 19 11.1 28.7 1.26 3.52 2.64 6.98 4.05 10.4 4.33 10.9 8.33 21.9 12.2 32.9 2.65 7.51 5.46 14.9 8.37 22.4 1.96 4.99 3.83 10 5.64 15.1 1.18 3.21 2.46 6.37 3.75 9.54 1.71 4.33 3.33 8.71 4.94 13.1 1.61 4.33 3.35 8.56 5.19 12.8 2.24 5.38 4.31 10.8 6.25 16.3 4.52 12.8 9.31 25.5 14.6 37.9 1.74 4.19 3.35 8.42 4.96 12.7 2.01 5.23 4.1 10.4 6.22 15.6 1.01 2.48 2 4.98 2.97 7.48 0.303 0.775 0.606 1.55 0.918 2.35 0.275 0.752 0.549 1.5 0.832 2.28 0.242 0.652 0.485 1.3 0.734 1.98 0.749 3.48 0.545 6.84 0.516 10.4-37.6 0.00987-75.1-0.0118-113-0.132-11.1-0.0349-22.2-0.0601-33.2-0.0635-9.77-0.00303-19.5-0.0234-29.3-0.065-5.15-0.0213-10.3-0.0339-15.4-0.0256-4.81 0.00751-9.61-0.00815-14.4-0.0419-1.76-0.00826-3.53-0.00795-5.29 0.00146-2.4 0.0116-4.8-0.00741-7.2-0.0342-0.699 0.0107-1.4 0.0213-2.12 0.0323-3.69-0.077-5.04-0.42-7.69-3.07-1.48-2.4-2.52-4.49-3.41-7.16-0.327-0.951-0.655-1.9-0.992-2.88-0.394-1.17-0.789-2.35-1.2-3.55-1.14-3.32-2.29-6.63-3.44-9.94-0.306-0.881-0.612-1.76-0.927-2.67-1.9-5.43-3.97-10.7-6.25-16-2.32-5.7-4.37-11.5-6.44-17.3-3.24-9.03-6.73-17.9-10.8-26.6-0.926-2.01-1.77-4.06-2.59-6.12-1.39-2.72-1.39-2.72-4.66-3.02-0.958-0.116-1.92-0.232-2.9-0.352-0.17 0.799-0.34 1.6-0.516 2.42-2.4 10.9-5.76 21-10.1 31.2-1.6 3.95-3.02 7.94-4.42 12-2.48 7.12-5.11 14.1-8.08 21-2.81 6.6-5.27 13.3-7.62 20-1.82 5.21-3.84 10.3-6.01 15.4-1.78 4.23-3.39 8.51-5.01 12.8-0.846 2.17-1.74 4.32-2.67 6.46-2 4.73-3.64 9.56-5.29 14.4-1.47 4.27-3.22 8.19-5.25 12.2-1.03 2.66-1.96 5.36-2.88 8.06-2.14 6.19-4.39 12.3-6.77 18.4-1.7 4.41-3.34 8.84-4.98 13.3-0.289 0.78-0.579 1.56-0.877 2.36-1.7 4.61-3.3 9.25-4.84 13.9-0.75 2.23-1.58 4.41-2.47 6.59-0.338 0.83-0.675 1.66-1.02 2.52-0.384 0.944-0.768 1.89-1.16 2.86-0.723 1.81-1.45 3.62-2.17 5.44-2.03 5.1-4.08 10.2-6.21 15.2-2.59 6.18-5.07 12.4-7.54 18.6-2.15 5.4-4.35 10.8-6.58 16.1-3.04 7.3-5.87 14.7-8.66 22.1-2.21 5.86-4.5 11.7-6.84 17.5-3.24 8.1-6.15 16.3-8.86 24.6-2.14 6.53-4.51 12.9-7.12 19.3-0.342 0.836-0.684 1.67-1.04 2.53-0.701 1.71-1.41 3.41-2.12 5.12-6.51 16-6.08 29.5 0.502 45.3 0.644 1.51 0.644 1.51 1.3 3.04 1.36 3.23 2.63 6.49 3.89 9.77 2.83 7.4 5.66 14.7 9 21.9 1.84 3.99 3.34 7.95 4.65 12.1 0.763 2.23 1.66 4.32 2.64 6.46 2.19 4.86 4.09 9.8 5.96 14.8 0.699 1.85 1.4 3.7 2.1 5.55 0.522 1.38 0.522 1.38 1.06 2.79 1.57 4.15 3.18 8.28 4.78 12.4 0.29 0.746 0.58 1.49 0.879 2.26 1.5 3.84 3.01 7.67 4.56 11.5 1.34 3.33 2.6 6.68 3.81 10.1 2.42 6.7 4.99 13.3 7.94 19.8 3.1 6.9 5.67 14 8.35 21.1 0.42 1.1 0.84 2.21 1.27 3.34 0.409 1.08 0.817 2.15 1.24 3.26 1.05 2.61 2.21 5.1 3.45 7.62 1.57 3.42 2.08 6.4 2.36 10.1 0.116 1.47 0.116 1.47 0.233 2.97 0.0519 0.743 0.104 1.49 0.157 2.25-0.806 0.00331-1.61 0.00662-2.44 0.01-19.6 0.0812-39.2 0.173-58.8 0.277-9.48 0.0502-19 0.0966-28.4 0.134-8.26 0.0329-16.5 0.0727-24.8 0.121-4.38 0.0253-8.75 0.0471-13.1 0.0606-4.12 0.0128-8.23 0.0348-12.3 0.064-1.51 0.00909-3.03 0.0148-4.54 0.0168-2.06 0.00331-4.12 0.0188-6.18 0.0373-1.16 0.00553-2.31 0.0111-3.5 0.0168-3.03 0.0553-3.03 0.0553-5.82 2.26-0.953 1.82-0.953 1.82-1.61 3.97-0.275 0.809-0.551 1.62-0.834 2.45-0.285 0.871-0.571 1.74-0.865 2.64-0.62 1.83-1.24 3.66-1.86 5.49-0.307 0.919-0.615 1.84-0.932 2.78-1.28 3.82-2.62 7.62-3.96 11.4-0.241 0.684-0.482 1.37-0.731 2.07-2.63 7.43-5.42 14.8-8.21 22.2-1.65 4.39-3.29 8.78-4.88 13.2-1.47 4.06-3 8.1-4.56 12.1-1.77 4.56-3.44 9.14-5.06 13.8-1.51 4.27-3.1 8.46-4.88 12.6-2.56 6.02-4.81 12.1-7.04 18.3-2.08 5.72-4.3 11.4-6.59 17-5.98 14.7-5.98 14.7-11.2 29.6-1.07 3.21-2.45 6.27-3.79 9.38-0.801 2.23-1.59 4.46-2.38 6.69-1.58 4.48-3.25 8.88-5.12 13.2-2.45 5.74-4.39 11.6-6.29 17.5-3.48 10.2-3.48 10.2-6.21 11.5-2 0.108-4 0.151-6 0.165-1.28 0.0112-2.56 0.0225-3.88 0.034-1.43 0.0075-2.86 0.0149-4.29 0.0222-1.5 0.0112-3 0.0228-4.5 0.0349-4.1 0.0315-8.2 0.0565-12.3 0.0802-3.45 0.0205-6.91 0.044-10.4 0.0675-8.2 0.0558-16.4 0.106-24.6 0.154-7.43 0.043-14.9 0.0914-22.3 0.146-71.1 0.516-71.1 0.516-99.7-0.117-0.929-0.0203-1.86-0.0405-2.81-0.0614-28.5-0.654-28.5-0.654-30.3-2.52-0.114-12 4.45-23.1 9-34 2.76-6.58 5.16-13.3 7.5-20 2.34-6.74 4.73-13.4 7.5-20 2.84-6.74 5.58-13.5 8.04-20.4 0.932-2.55 1.93-5.07 2.96-7.58 1.88-4.63 3.45-9.34 4.97-14.1 1.18-3.4 2.6-6.65 4.03-9.96 1.01-2.61 1.97-5.24 2.94-7.88 1.87-5.05 3.81-10 6.07-14.9 3.73-8.31 6.8-16.9 9.99-25.4 1.61-4.26 3.28-8.46 5.15-12.6 1.37-3.04 2.53-6 3.41-9.23 1.27-4.42 2.78-8.66 4.44-12.9 0.371-1 0.742-2 1.12-3.04 1.94-5.19 3.93-10.2 6.5-15.2 2.07-3.99 3.37-7.88 4.57-12.2 1.19-3.87 2.81-7.54 4.41-11.3 2.39-5.74 4.52-11.6 6.68-17.4 0.98-2.64 1.97-5.28 2.96-7.92 0.755-2.01 1.51-4.03 2.25-6.05 0.5-1.34 1-2.68 1.5-4.03 0.248-0.668 0.495-1.34 0.75-2.03 1.63-4.36 3.42-8.63 5.25-12.9 0.952-2.5 1.89-4.99 2.81-7.5 3.26-8.76 6.73-17.4 10.2-26.1 2.36-5.83 4.58-11.7 6.75-17.6 1.19-3.2 2.42-6.37 3.78-9.5 1.11-2.59 2.07-5.11 2.91-7.79 1.03-3.3 2.32-6.43 3.7-9.6 1.38-3.26 2.58-6.58 3.8-9.9 1.86-5.07 3.87-10 6-15 0.953-2.47 1.89-4.95 2.81-7.44 0.525-1.41 1.05-2.82 1.57-4.23 0.266-0.716 0.532-1.43 0.806-2.17 0.792-2.13 1.59-4.25 2.39-6.38 2.19-5.83 4.38-11.7 6.48-17.5 1.39-3.85 2.91-7.61 4.5-11.4 1.78-4.22 3.36-8.44 4.76-12.8 2.62-8.03 5.96-15.8 9.12-23.7 2.68-6.64 5.29-13.3 7.69-20 1.58-4.35 3.37-8.6 5.17-12.9 3.33-7.99 6.6-16 9.25-24.2 1.22-3.76 2.77-7.3 4.41-10.9 1.47-3.37 2.66-6.81 3.89-10.3 1.32-3.58 2.76-7.12 4.2-10.7 2.04-5.01 3.77-10 5.24-15.2 0.914-2.93 2.17-5.63 3.46-8.41 1.72-3.91 3.26-7.89 4.8-11.9 0.293-0.756 0.586-1.51 0.888-2.29 1.65-4.28 3.27-8.57 4.88-12.9 2.07-5.5 4.26-10.9 6.73-16.3 1.75-3.86 2.96-7.76 4.12-11.8 0.774-2.52 1.67-4.92 2.66-7.36 0.352-0.87 0.705-1.74 1.07-2.64 0.36-0.882 0.721-1.76 1.09-2.67 1.02-2.5 2.03-5 3.05-7.5 0.676-1.67 1.36-3.33 2.04-5 2.02-5 3.7-10 5.19-15.2 0.998-3.21 2.35-6.24 3.72-9.31 1.01-2.61 1.97-5.24 2.94-7.88 1.9-5.13 3.91-10.2 6.2-15.1 1.22-2.83 2.14-5.74 3.08-8.68 1.13-3.37 2.48-6.64 3.82-9.93 0.838-2.08 1.63-4.17 2.4-6.27 1.2-3.25 2.52-6.43 3.88-9.62 2.32-5.52 4.44-11.1 6.53-16.7 1.63-4.39 3.33-8.74 5.09-13.1 1.69-4.28 3.28-8.59 4.87-12.9 1.19-3.21 2.42-6.38 3.79-9.51 1.08-2.53 2.03-4.98 2.84-7.59 1.33-4.11 2.9-8.09 4.53-12.1 1.39-3.49 2.65-7.03 3.91-10.6 0.962-2.59 1.97-5.15 3-7.72 2.11-5.25 4.13-10.5 6.12-15.8 2.32-6.13 4.68-12.2 7.13-18.3 0.988-2.48 1.91-4.98 2.81-7.5 1.45-4.02 2.95-8.02 4.5-12 2.25-5.79 4.32-11.6 6.35-17.5 1.21-3.19 1.21-3.19 2.68-6.12 1.74-3.48 3.08-7.04 4.41-10.7 2.53-6.87 5.28-13.6 8.12-20.4 2.79-6.73 5.28-13.5 7.71-20.4 2.27-6.32 4.67-12.6 7.19-18.8 2.53-6.25 4.88-12.6 7.16-18.9 3.87-10.7 3.87-10.7 5.56-15.2 1.13-3 2.23-6.01 3.31-9.03 2.2-6.05 4.59-12 7.03-18 2.47-6.07 4.69-12.2 6.88-18.4 1.7-4.8 3.5-9.56 5.34-14.3 2.79-7.16 2.79-7.16 5.25-14.4 2.57-7.89 5.79-16.4 11.6-22.5 3.52-1.29 7.06-1.13 10.8-1.13zm-6.77 1.13v1h13v-1h-13zm75 0v1h17v-1h-17zm-318 617 1 2z" fill="#FCFCFC"/>
<path transform="translate(890 617)" d="m0 0c1.53 0.00616 1.53 0.00616 3.09 0.0125 1.2 0.00129 2.4 0.00258 3.64 0.00391 1.39 0.0127 2.77 0.0258 4.16 0.0391 1.53 7e-3 3.07 0.0135 4.6 0.0195 9.28 0.0502 18.6 0.206 27.8 0.398 3.36 0.0673 6.72 0.134 10.1 0.199 2.42 0.0472 4.83 0.0952 7.25 0.144 20.8 0.405 41.5 0.446 62.3 0.392 2.82-0.00701 5.63-0.0129 8.45-0.0187 12.9-0.0269 25.7-0.0578 38.6-0.128 6.14-0.033 12.3-0.051 18.4-0.0643 2.57-0.00837 5.14-0.0222 7.71-0.0416 3.55-0.0263 7.1-0.0343 10.6-0.0379 1.57-0.0185 1.57-0.0185 3.18-0.0374 0.959 0.00268 1.92 0.00535 2.91 0.00811 0.83-0.00406 1.66-0.00813 2.52-0.0123 2.8 0.455 4.17 1.48 6.26 3.37 0.986 1.89 0.986 1.89 1.68 4.04 0.267 0.801 0.534 1.6 0.809 2.43 0.273 0.859 0.546 1.72 0.828 2.6 0.605 1.81 1.21 3.63 1.82 5.44 0.307 0.918 0.615 1.84 0.931 2.78 4.36 12.7 9.6 25.1 15 37.4 4.28 9.79 8.26 19.6 11.6 29.7 1.48 4.4 3.19 8.42 5.3 12.6 1.06 2.64 2.03 5.32 3 8 0.487 1.31 0.975 2.62 1.46 3.93 0.361 0.967 0.361 0.967 0.729 1.95 0.245 0.657 0.491 1.31 0.744 1.99 0.262 0.701 0.523 1.4 0.793 2.12 1.39 3.71 2.82 7.4 4.33 11.1 2.16 5.32 3.92 10.8 5.69 16.2 3.14 9.34 6.85 18.5 10.4 27.6 0.663 1.7 1.32 3.4 1.97 5.11 1.98 5.08 4.24 9.91 6.78 14.7 0.986 2.09 1.53 3.99 2.05 6.23 29.1 0.567 58.2 1.04 87.4 1.35 5.66 0.0606 11.3 0.124 17 0.189 1.21 0.0138 1.21 0.0138 2.44 0.028 3.27 0.0374 6.53 0.0749 9.8 0.113 9.18 0.106 18.4 0.206 27.5 0.294 7.46 0.0711 14.9 0.152 22.4 0.246 3.9 0.0486 7.81 0.0921 11.7 0.123 3.62 0.0284 7.24 0.0704 10.9 0.123 1.96 0.0249 3.91 0.035 5.87 0.0448 1.16 0.0195 2.32 0.039 3.51 0.0591 1.01 0.0107 2.01 0.0214 3.05 0.0324 2.92 0.464 3.76 1.05 5.51 3.4 1.05 2.31 1.99 4.57 2.88 6.94 0.529 1.37 1.06 2.74 1.59 4.11 0.39 1.01 0.39 1.01 0.789 2.05 1.01 2.58 2.09 5.12 3.18 7.66 2.56 6.09 4.82 12.3 7.06 18.5 1.69 4.66 3.54 9.21 5.5 13.8 0.79 2.14 1.56 4.28 2.31 6.44 2.5 7.08 5.12 14.1 7.77 21.1 1.06 2.81 2.11 5.62 3.16 8.44 0.393 1.05 0.787 2.11 1.19 3.19 0.774 2.07 1.55 4.14 2.32 6.21 2.77 7.39 5.64 14.7 8.67 22 3.66 8.85 6.7 17.8 9.68 26.9 2.01 6.09 4.16 12 6.75 17.9 1.86 4.42 3.39 8.97 4.94 13.5 1.15 3.24 1.15 3.24 2.75 6.24 1.53 3.14 2.37 6.03 3.14 9.43 0.251 1.07 0.503 2.14 0.762 3.25 0.581 3.5 0.588 6.78 0.551 10.3-0.561-9.22e-4 -1.12-0.00184-1.7-0.00279-81-0.216-81-0.216-162 0.409-2.3 0.0318-4.61 0.0617-6.91 0.0913-4.17 0.0545-8.34 0.119-12.5 0.187-1.2 0.0167-2.4 0.0334-3.63 0.0507-1.07 0.0199-2.14 0.0399-3.25 0.0604-0.924 0.0155-1.85 0.0311-2.8 0.0471-2.24 0.0213-2.24 0.0213-4.19 1.16 1.67 7.28 4 14.3 6.38 21.4 0.387 1.17 0.773 2.34 1.17 3.54 2.27 6.79 4.71 13.5 7.45 20.1 5.17 12.8 10.2 25.7 15 38.6 1.55 4.19 3.27 8.29 5.04 12.4 3.31 8.11 6.51 16.3 9.69 24.4 0.285 0.733 0.57 1.47 0.864 2.22 1.85 4.77 3.66 9.55 5.45 14.3 0.69 1.84 0.69 1.84 1.39 3.72 0.23 0.614 0.461 1.23 0.698 1.86 0.497 1.33 0.995 2.65 1.49 3.98 1.35 3.59 2.69 7.19 4.03 10.8 0.263 0.706 0.526 1.41 0.798 2.14 0.499 1.34 0.997 2.68 1.49 4.02 1.32 3.54 2.74 7.01 4.25 10.5 1.88 4.5 3.57 9.08 5.28 13.6 0.401 1.07 0.802 2.14 1.22 3.24 2.4 6.46 4.66 12.9 6.57 19.5 0.943 3.2 2.07 6.31 3.26 9.43 0.721 3.07 0.546 6.05 0.516 9.2-23.5 0.0235-47 0.0411-70.5 0.0518-10.9 0.00513-21.8 0.0121-32.8 0.0236-9.53 0.0101-19.1 0.0164-28.6 0.0186-5.03 0.00129-10.1 0.00426-15.1 0.0116-72.3 0.102-72.3 0.102-77.4-4.05-2.23-4.21-3.89-8.52-5.49-13-0.698-1.89-1.4-3.79-2.1-5.68-0.342-0.921-0.684-1.84-1.04-2.79-1.31-3.44-2.75-6.79-4.24-10.2-2.23-5.1-4.06-10.2-5.76-15.5-1.36-4.01-3-7.88-4.66-11.8-2.54-6.01-4.93-12.1-7.33-18.1-0.416-1.05-0.832-2.1-1.26-3.18-1.44-3.63-2.87-7.25-4.3-10.9-0.459-1.16-0.918-2.32-1.39-3.51-2.79-7.09-5.43-14.2-7.94-21.4-1.23-3.37-2.65-6.6-4.15-9.85-1.44-3.28-2.62-6.65-3.82-10-3.13-8.73-6.27-17.5-10.1-25.9-3-6.8-5.49-13.8-8-20.8-1.38-3.83-2.89-7.57-4.5-11.3-3.02-7.16-5.34-14.5-7.24-22.1-0.231-0.887-0.461-1.77-0.699-2.69-0.184-0.776-0.369-1.55-0.559-2.35-1.43-2.88-3.14-3.6-6-5.02-2.99-0.497-2.99-0.497-6.25-0.504-1.26-0.0344-2.51-0.0689-3.81-0.104-1.39-0.0225-2.77-0.0444-4.16-0.0657-1.47-0.0326-2.94-0.0659-4.41-0.1-16.8-0.361-33.5-0.394-50.3-0.425-5.76-0.0109-11.5-0.0312-17.3-0.0531-16.3-0.0611-32.7-0.116-49-0.149-9.09-0.0183-18.2-0.0472-27.3-0.088-4.79-0.021-9.58-0.0365-14.4-0.0388-4.48-0.00214-8.95-0.018-13.4-0.0444-1.64-0.0072-3.28-0.00929-4.92-0.0059-2.24 0.00389-4.47-0.0105-6.71-0.0295-1.25-0.00331-2.5-0.00662-3.79-0.01-3.54-0.413-5.47-1.21-8.27-3.38v-2h-2c-1.67-3.9-3.35-7.79-5.02-11.7-0.568-1.32-1.14-2.65-1.71-3.97-0.82-1.91-1.64-3.82-2.46-5.73-0.738-1.72-0.738-1.72-1.49-3.48-0.658-1.55-0.658-1.55-1.33-3.14-0.388-0.879-0.776-1.76-1.18-2.66-0.824-2.34-0.824-2.34-0.824-6.34h-2c-0.181-0.573-0.361-1.15-0.547-1.74-4.65-14.8-4.65-14.8-11.2-28.8-2.17-4.25-3.26-7.68-3.26-12.5h-2c-0.454-1.42-0.454-1.42-0.918-2.86-0.423-1.3-0.846-2.59-1.27-3.89-0.406-1.25-0.812-2.51-1.23-3.8-1.48-4.31-3.23-8.49-5-12.7-1.99-4.72-3.93-9.47-5.87-14.2-0.386-0.943-0.771-1.89-1.17-2.86-0.798-1.95-1.6-3.9-2.39-5.85-1.21-2.97-2.43-5.94-3.65-8.91-0.785-1.92-1.57-3.84-2.35-5.75-0.357-0.873-0.715-1.75-1.08-2.65-2.08-5.09-4.14-10.2-6.17-15.3-1.4-3.49-2.83-6.95-4.27-10.4-2.35-5.7-4.69-11.4-7-17.1-0.482-1.19-0.964-2.38-1.46-3.61-2.01-5.31-2.35-9.42-2.16-15.1 1.56-1.56 3.12-1.22 5.29-1.32 0.911-0.0426 1.82-0.0852 2.76-0.129 1.5-0.0595 1.5-0.0595 3.02-0.12 1.03-0.0425 2.07-0.0851 3.14-0.129 11.2-0.417 22.4-0.327 33.6-0.18 2.25 0.0245 4.5 0.0484 6.74 0.0717 4.74 0.05 9.48 0.103 14.2 0.159 12.4 0.146 24.8 0.268 37.2 0.39 1.24 0.0123 2.47 0.0246 3.74 0.0372 23.6 0.232 47.1 0.312 70.7 0.283 0.827-9.23e-4 1.65-0.00185 2.51-0.0028 9.69-0.0111 19.4-0.0298 29.1-0.0597-0.311-1.58-0.624-3.17-0.937-4.75-0.174-0.882-0.348-1.76-0.527-2.67-0.731-3.51-1.64-6.95-2.66-10.4-0.21-0.712-0.419-1.42-0.635-2.16-2.36-7.77-5.31-15.3-8.25-22.9-1.84-4.73-3.56-9.5-5.24-14.3-0.246-0.703-0.493-1.41-0.746-2.13-0.669-1.91-1.34-3.83-2-5.74-3.35-9.57-7.15-19-10.9-28.4-1.7-4.21-3.38-8.43-5.06-12.6-0.663-1.66-1.33-3.31-1.99-4.97-1.37-3.44-2.75-6.87-4.12-10.3-3.19-7.99-6.4-16-9.74-23.9-1.75-4.26-3.35-8.58-4.94-12.9-1.18-2.84-2.63-5.28-4.21-7.91-0.506-1.4-0.967-2.82-1.38-4.25-1.07-3.43-2.43-6.34-4.25-9.44-3.62-6.3-4.14-13.1-3.38-20.3 2-2 2-2 4.36-2.24z" fill="#FCFCFC"/>
<path transform="translate(1397,832)" d="m0 0h2c2.32 5.62 4.48 11.3 6.5 17 2.03 5.73 4.19 11.4 6.5 17 2.74 6.69 5.25 13.4 7.66 20.3 2.07 5.79 4.25 11.5 6.42 17.3 1.06 2.81 2.11 5.62 3.16 8.44 0.393 1.05 0.787 2.11 1.19 3.19 0.774 2.07 1.55 4.14 2.32 6.21 2.77 7.39 5.64 14.7 8.67 22 3.66 8.85 6.7 17.8 9.68 26.9 2.01 6.09 4.16 12 6.75 17.9 1.86 4.42 3.39 8.97 4.94 13.5 1.15 3.24 1.15 3.24 2.75 6.24 1.53 3.14 2.37 6.03 3.14 9.43 0.251 1.07 0.503 2.14 0.762 3.25 0.551 3.32 0.551 3.32 0.551 10.3h-197c0.66-0.33 1.32-0.66 2-1 0.467-2.13 0.467-2.13 0.625-4.56 0.112-1.24 0.112-1.24 0.227-2.5 0.0735-0.957 0.0735-0.957 0.148-1.93 0.606 0.0838 1.21 0.168 1.84 0.254 5.59 0.68 10.6 0.669 16.2-0.0977 0.638-0.0516 1.28-0.103 1.93-0.156 0.33 0.33 0.66 0.66 1 1 2.02 0.234 4.04 0.413 6.06 0.562 1.1 0.0838 2.21 0.168 3.35 0.254 0.855 0.0606 1.71 0.121 2.59 0.184v-2c2.33-0.34 4.67-0.672 7-1 1.3-0.186 2.6-0.371 3.94-0.562 6.62-0.946 12.9-0.404 19.5 0.614 13.6 2.09 26.9 2.38 40.6 2.28 3.73-0.0239 7.46-0.0205 11.2-0.0139 2.41-0.00557 4.82-0.0127 7.23-0.0215 1.1 9.11e-4 2.19 0.00182 3.32 0.00276 6.09-0.0555 11.8-0.591 17.7-1.87 3.39-0.594 6.67-0.519 10.1-0.437 3.52 0.0058 6.89-0.481 10.4-0.996v2h6c-0.66-0.66-1.32-1.32-2-2 2.31-0.33 4.62-0.66 7-1 0.66-1.65 1.32-3.3 2-5h3c-1.03-8.21-1.03-8.21-3.62-16-1.38-3-1.38-3-1.38-7-0.66-0.33-1.32-0.66-2-1v-4h-2c-0.11-0.626-0.219-1.25-0.332-1.9-0.159-0.817-0.317-1.63-0.48-2.48-0.151-0.812-0.302-1.62-0.457-2.46-0.606-2.52-0.606-2.52-3.73-4.16h2c-0.33-0.557-0.66-1.11-1-1.69-1.13-2.62-1.16-4.49-1-7.31h-2c-1.89-3.19-2-5.35-2-9-0.66-0.66-1.32-1.32-2-2-0.565-2.66-0.738-5.29-1-8h-2v-5h-2v-6c-0.66-0.33-1.32-0.66-2-1v-8h-2c-0.33-1.65-0.66-3.3-1-5h-2c-0.217-1.14-0.217-1.14-0.438-2.31-0.526-2.77-0.526-2.77-1.56-5.69 0.33-0.66 0.66-1.32 1-2h-2c-0.186-0.928-0.186-0.928-0.375-1.88-0.497-2.32-0.497-2.32-2.62-4.12-0.565-2.66-0.738-5.29-1-8h-2c-1.32-3.62-2-6.1-2-10-0.66-0.33-1.32-0.66-2-1v-3c-0.66-0.33-1.32-0.66-2-1v-3c-0.66-0.33-1.32-0.66-2-1-0.371-2.01-0.647-4.03-0.875-6.06-0.691-5.05-1.73-8.81-4.24-13.2-1.28-2.48-1.61-4.97-1.89-7.72-1.48-0.495-1.48-0.495-3-1v-18z" fill="#F0F2F3"/>
<path transform="translate(716 126)" d="m0 0c0.68-0.00156 1.36-0.00312 2.06-0.00473 2.28-0.00399 4.55-8.29e-4 6.83 0.00232 1.63-0.00136 3.27-0.00314 4.9-0.00531 4.43-0.00456 8.87-0.00279 13.3 3.79e-4 4.64 0.00253 9.27 1.85e-4 13.9-0.00139 7.78-0.00182 15.6 5.8e-4 23.3 0.00534 9.01 0.00545 18 0.00368 27-0.00183 7.73-0.00453 15.5-0.00518 23.2-0.00256 4.62 0.00156 9.24 0.00176 13.9-0.00154 4.34-0.00288 8.68-8.99e-4 13 0.00489 1.6 0.00133 3.19 9.36e-4 4.79-0.00126 2.17-0.00272 4.34 6.75e-4 6.51 0.00568 1.22 3.77e-4 2.43 7.54e-4 3.69 0.00114 2.83 0.126 2.83 0.126 4.83 1.13 2.78 0.133 5.55 0.21 8.33 0.246 1.7 0.0329 3.4 0.0662 5.11 0.0996 2.69 0.0474 5.37 0.0918 8.06 0.131 2.59 0.0398 5.18 0.0913 7.77 0.144 0.799 0.00841 1.6 0.0168 2.42 0.0255 4.18 0.0922 7.54 0.342 11.3 2.35 1.73 1.99 1.73 1.99 3.19 4.31 0.733 1.14 0.733 1.14 1.48 2.3 1.97 3.53 3.33 6.31 3.33 10.4-4.33 0.263-7.88-0.708-12-2 0.33-0.66 0.66-1.32 1-2h2c-2.74-0.913-4.59-1.17-7.43-1.28-1.32-0.0561-1.32-0.0561-2.66-0.113-0.918-0.0348-1.84-0.0696-2.78-0.105-5.7-0.226-11.4-0.515-17-1.04-6.78-0.528-13.4-0.393-20.2-0.107-3.62 0.15-7.24 0.27-10.9 0.389-0.747 0.0245-1.49 0.049-2.26 0.0743-7.77 0.242-15.5 0.29-23.3 0.286-0.691-3.09e-4 -1.38-6.18e-4 -2.1-9.37e-4 -4.3-0.00366-8.61-0.0151-12.9-0.0283-3.84-0.0103-7.68-0.0135-11.5-0.0174-9.67-0.0109-19.3-0.0305-29-0.051-10.5-0.0222-21.1-0.0426-31.6-0.0534-4.54-0.00495-9.08-0.0148-13.6-0.0284-2.81-0.00747-5.62-0.0108-8.43-0.013-1.91-0.00275-3.83-0.0105-5.74-0.0185-11-0.505-11-0.505-20.5 4.11 1.2-6.96 2.86-12.9 8-18 3.53-1.28 7.05-1.13 10.8-1.13zm-6.77 1.13v1h13v-1h-13zm75 0v1h17v-1h-17z" fill="#F0F2F3"/>
<path transform="translate(928,150)" d="m0 0h2c0.254 0.785 0.508 1.57 0.77 2.38 1.86 5.66 3.8 11.2 6.23 16.6 3.25 7.46 6.1 15 8.76 22.7 2.58 7.39 5.61 14.6 8.74 21.7 1.88 4.46 3.58 8.97 5.31 13.5 0.882 2.27 1.78 4.52 2.75 6.76 1.91 4.4 3.67 8.86 5.44 13.3 0.291 0.722 0.582 1.44 0.882 2.19 2.43 6.03 4.76 12.1 7.06 18.2 2.51 6.63 5.09 13.2 7.85 19.8 3.99 9.46 7.66 19 11.1 28.7 1.26 3.52 2.64 6.98 4.05 10.4 4.33 10.9 8.33 21.9 12.2 32.9 2.65 7.51 5.46 14.9 8.37 22.4 1.96 4.99 3.83 10 5.64 15.1 1.18 3.21 2.46 6.37 3.75 9.54 1.71 4.33 3.33 8.71 4.94 13.1 1.61 4.33 3.35 8.56 5.19 12.8 2.24 5.38 4.31 10.8 6.25 16.3 4.52 12.8 9.31 25.5 14.6 37.9 1.74 4.19 3.35 8.42 4.96 12.7 2.01 5.23 4.1 10.4 6.22 15.6 6.5 16 6.5 16 5.97 21.5-3 1-3 1-5.06 0.375-2.53-1.8-3.06-3.44-3.94-6.38v-2h-4v-3c-1.65-0.33-3.3-0.66-5-1 0.0232-0.724 0.0464-1.45 0.0703-2.2 0.172-7.6 0.172-7.6-2.07-14.8-0.66-0.33-1.32-0.66-2-1-0.594-2.65-0.742-5.29-1-8h-2v-2c-0.66-0.66-1.32-1.32-2-2h2c-0.298-0.701-0.596-1.4-0.902-2.12-1.12-2.94-1.92-5.82-2.66-8.88-0.249-1.01-0.498-2.02-0.754-3.06-0.443-1.9-0.83-3.82-1.15-5.75-0.265-1.08-0.265-1.08-0.535-2.19-0.66-0.33-1.32-0.66-2-1-0.9-3.6-1.54-7.23-2.22-10.9l-0.781-3.12c-0.66-0.33-1.32-0.66-2-1-0.527-1.86-0.527-1.86-0.938-4.19-0.797-4.01-2.16-7.18-4.06-10.8v-3c-0.66-0.33-1.32-0.66-2-1-0.711-1.97-0.711-1.97-1.38-4.5-0.981-3.49-2.09-6.72-3.62-10-1.91-4.07-3.15-8.19-4.29-12.5-0.525-2.16-0.525-2.16-2.71-2.97-0.492-1.9-0.492-1.9-0.875-4.38-0.89-4.99-2.44-9.48-4.32-14.2-0.805-2.45-0.805-2.45-0.805-6.45-0.66-0.33-1.32-0.66-2-1v-3h-3c-0.33-1.98-0.66-3.96-1-6h-2c-0.495-4.45-0.495-4.45-1-9h-2c-0.495-4.45-0.495-4.45-1-9h-2c-0.99-3.47-0.99-3.47-2-7h-2v-9h-3c-0.124-0.722-0.247-1.44-0.375-2.19-0.617-2.78-1.55-5.19-2.62-7.81-0.701-2.41-1.09-4.69-1.44-7.19-0.186-0.928-0.371-1.86-0.562-2.81-0.66-0.33-1.32-0.66-2-1v-3c-0.66-0.33-1.32-0.66-2-1-0.373-1.66-0.707-3.33-1-5l-1-1c-0.37-1.64-0.697-3.29-1-4.94-0.65-3.65-0.65-3.65-2-7.06-0.99-0.33-1.98-0.66-3-1v-3c-0.33 0.99-0.66 1.98-1 3h-2c0.0232-0.82 0.0464-1.64 0.0703-2.48 0.018-1.08 0.0361-2.16 0.0547-3.27 0.0232-1.07 0.0464-2.13 0.0703-3.23-0.195-3.01-0.808-4.42-2.2-7.02v-4h-3c-0.268-1.11-0.536-2.23-0.812-3.38-0.846-3.84-0.846-3.84-4.19-5.62 0.206-0.866 0.413-1.73 0.625-2.62 0.419-3.77-0.301-5.87-1.62-9.38v-3c-0.99-0.495-0.99-0.495-2-1-0.72-1.98-1.38-3.99-2-6-0.33-0.825-0.66-1.65-1-2.5-1.74-4.34-3-7.78-3-12.5h-2v-4c-1.49-0.495-1.49-0.495-3-1-0.049-0.568-0.098-1.14-0.148-1.72-0.644-8.68-0.644-8.68-4.48-16.2-1.78-2.67-1.41-4.69-1.3-7.8-0.311-9.46-5.43-20.9-11.1-28.3-3.33-6.45-4.47-11.8-4-19z" fill="#F0F2F3"/>
<path transform="translate(1267 1030)" d="m0 0c0.892 0.111 1.78 0.222 2.7 0.336 0.675 0.0954 1.35 0.191 2.05 0.289 0.364 1.25 0.727 2.49 1.1 3.78 4.31 14.7 9.06 29.1 14.9 43.2 5.18 12.8 10.2 25.7 15 38.6 1.55 4.19 3.27 8.29 5.04 12.4 3.31 8.11 6.51 16.3 9.69 24.4 0.285 0.733 0.57 1.47 0.864 2.22 1.85 4.77 3.66 9.55 5.45 14.3 0.46 1.23 0.92 2.45 1.39 3.72 0.23 0.614 0.461 1.23 0.698 1.86 0.497 1.33 0.995 2.65 1.49 3.98 1.35 3.59 2.69 7.19 4.03 10.8 0.263 0.706 0.526 1.41 0.798 2.14 0.499 1.34 0.997 2.68 1.49 4.02 1.32 3.54 2.74 7.01 4.25 10.5 1.88 4.5 3.57 9.08 5.28 13.6 0.401 1.07 0.802 2.14 1.22 3.24 2.4 6.45 4.65 12.9 6.57 19.5 0.973 3.32 2.1 6.57 3.26 9.83 0.516 1.8 0.516 1.8 0.516 4.8h-5v-5h-5c-0.495-2.47-0.495-2.47-1-5h-3v-5c0.66 0.33 1.32 0.66 2 1-1.26-5.72-3.03-10.6-5.62-15.9-3.38-6.88-3.38-6.88-3.38-9.12h-3c-0.532-1.43-1.05-2.87-1.56-4.31-0.435-1.2-0.435-1.2-0.879-2.43-0.559-2.26-0.559-2.26 0.441-5.26l-1-1c-0.0406-1.67-0.0427-3.33 0-5h-3c-0.049-0.592-0.098-1.18-0.148-1.79-0.67-7.81-0.67-7.81-4.85-14.2-0.565-2.66-0.738-5.29-1-8h-2c-0.124-0.722-0.247-1.44-0.375-2.19-0.532-2.75-0.532-2.75-1.5-5-2.42-6.06-4.27-12.3-5.12-18.8-0.99-0.33-1.98-0.66-3-1v-4h-3c-0.124-0.516-0.247-1.03-0.375-1.56-1.07-4.17-2.24-8.3-3.62-12.4-0.806-2.47-1.43-4.85-2-7.38-0.495-1.83-0.495-1.83-1-3.69-0.99-0.495-0.99-0.495-2-1-1.04-2.75-1.89-5.42-2.44-8.31-0.278-0.835-0.278-0.835-0.562-1.69-0.99-0.33-1.98-0.66-3-1v-4h-2c-0.33-2.64-0.66-5.28-1-8-1.32-0.33-2.64-0.66-4-1 0.0116-0.603 0.0232-1.21 0.0352-1.83 0.00902-0.799 0.018-1.6 0.0273-2.42 0.0116-0.789 0.0232-1.58 0.0352-2.39-0.0951-2.3-0.334-4.19-1.1-6.36-0.66-0.33-1.32-0.66-2-1-0.407-2.32-0.744-4.66-1-7h-2c-0.33 0.66-0.66 1.32-1 2-0.458-1.38-0.917-2.75-1.38-4.12-0.275-0.817-0.549-1.63-0.832-2.48-0.647-1.96-1.26-3.93-1.86-5.9-0.67-2.65-0.67-2.65-2.94-3.5-0.343-1.33-0.676-2.66-1-4-0.66-0.66-1.32-1.32-2-2-0.125-2.62-0.125-2.62 0-5-0.99-0.33-1.98-0.66-3-1-2.83-4.56-4.97-9.18-5.06-14.6 1.06-2.44 1.06-2.44 2.8-3.61 2.76-1.01 4.61-0.831 7.51-0.449z" fill="#F0F2F3"/>
<path transform="translate(1119,646)" d="m0 0c3.43 2.29 3.64 3.1 4.88 6.88 2.68 7.79 5.89 15.3 9.2 22.9 4.28 9.78 8.25 19.6 11.6 29.7 1.48 4.4 3.19 8.42 5.3 12.6 1.06 2.64 2.03 5.32 3 8 0.487 1.31 0.975 2.62 1.46 3.93 0.24 0.645 0.481 1.29 0.729 1.95 0.245 0.657 0.491 1.31 0.744 1.99 0.262 0.701 0.523 1.4 0.793 2.12 1.39 3.71 2.82 7.4 4.33 11.1 2.16 5.32 3.92 10.8 5.69 16.2 3.14 9.34 6.85 18.5 10.4 27.6 0.663 1.7 1.32 3.4 1.97 5.11 1.98 5.08 4.24 9.91 6.78 14.7 1.05 2.23 1.05 2.23 2.05 6.23 23.3 0.495 23.3 0.495 47 1 0.99 2.48 0.99 2.48 2 5h2v4c-0.999 0.049-2 0.098-3.03 0.148-1.94 0.112-1.94 0.112-3.91 0.227-1.29 0.0696-2.58 0.139-3.9 0.211-1.04 0.137-2.09 0.273-3.16 0.414-0.33 0.66-0.66 1.32-1 2-1.58 0.0272-3.17 0.0465-4.75 0.0625-0.882 0.0116-1.76 0.0232-2.67 0.0352-2.58-0.0977-2.58-0.0977-4.44-0.609-2.43-0.555-4.5-0.522-6.99-0.411-1.37 0.0387-1.37 0.0387-2.78 0.0781-1.92 0.0625-3.84 0.141-5.76 0.234-2.63 0.0591-5.03 0.0667-7.62-0.391-2.52-2.46-2.52-2.46-4-5-0.722-0.289-1.44-0.578-2.19-0.875-0.598-0.371-1.2-0.743-1.81-1.12-0.625-3.38-0.625-3.38-1-7-1.08-2.68-1.94-3.94-4-6-0.165-1.18-0.33-2.35-0.5-3.56-0.247-1.7-0.247-1.7-0.5-3.44-0.66-0.33-1.32-0.66-2-1-0.68-2-1.34-4-2-6-0.969-1.68-1.97-3.35-3-5-2.57-4.63-3.84-8.87-5-14-0.33-1.33-0.662-2.67-1-4h-2c-0.66-1.32-1.32-2.64-2-4h-2c-0.196-1.75-0.381-3.5-0.562-5.25-0.157-1.46-0.157-1.46-0.316-2.95-0.111-2.56 0.102-4.38 0.879-6.8h-2v-5h-2v-6h-2v-4c-0.66-0.33-1.32-0.66-2-1v-4c-0.66-0.33-1.32-0.66-2-1-0.597-2.01-0.954-4.03-1.34-6.09-0.576-2.29-0.576-2.29-3.66-3.91v-2c-1.32-0.33-2.64-0.66-4-1v-10c-0.66-0.33-1.32-0.66-2-1v-4c-1.65-0.33-3.3-0.66-5-1-0.0374-0.664-0.0748-1.33-0.113-2.01-0.389-5.22-0.969-8.55-3.89-13-0.0387-1.67-0.045-3.33 0-5-0.66-0.66-1.32-1.32-2-2 0.495-0.495 0.495-0.495 1-1-0.252-1.7-0.576-3.38-0.938-5.06-0.195-0.919-0.389-1.84-0.59-2.79-0.156-0.71-0.312-1.42-0.473-2.15-0.66 0.33-1.32 0.66-2 1v-9h-2c-0.197-1.42-0.382-2.83-0.562-4.25-0.104-0.789-0.209-1.58-0.316-2.39-0.122-2.39 0.242-4.08 0.879-6.36v-3z" fill="#F0F2F3"/>
<path transform="translate(734,1012)" d="m0 0c1.42 2.74 2.61 5.46 3.62 8.38 0.26 0.73 0.521 1.46 0.789 2.21 0.694 2.86 0.624 5.48 0.586 8.41-14.7 0.0467-29.4 0.082-44.1 0.104-6.82 0.0103-13.6 0.0244-20.5 0.0473-6.58 0.022-13.2 0.0337-19.7 0.0389-2.52 0.00371-5.03 0.0109-7.55 0.0217-3.51 0.0144-7.03 0.0165-10.5 0.0156-1.05 0.00719-2.1 0.0144-3.18 0.0218-1.43-0.00412-1.43-0.00412-2.89-0.00833-0.831 0.00184-1.66 0.00369-2.52 0.00559-2.01-0.246-2.01-0.246-4.01-2.25 1.65-0.33 3.3-0.66 5-1v-2c-0.99-0.33-1.98-0.66-3-1 6.72-3.21 12-5.43 19.6-4.44 4.14 0.495 7.65 0.213 11.8-0.5 8.61-1.49 16.9-1.34 25.6-0.562 6.99 0.611 13.9 0.528 20.9 0.48 6.27-0.026 12.4 0.198 18.7 0.801 2.71 0.278 2.71 0.278 6.46 0.219 2.17-2.87 3-4.36 3-8 0.66-0.33 1.32-0.66 2-1z" fill="#F0F2F3"/>
<path transform="translate(891 617)" d="m0 0c1.23 0.00411 2.46 0.00822 3.73 0.0125 0.674-8.56e-5 1.35-1.71e-4 2.04-2.59e-4 2.22 0.00331 4.44 0.0222 6.66 0.0432 1.53 0.00956 3.06 0.019 4.59 0.0283 3.93 0.0288 7.86 0.0757 11.8 0.129 2.23 0.029 4.46 0.0515 6.69 0.0724 4 0.0407 7.99 0.12 12 0.208 1.22 0.0139 2.43 0.0279 3.68 0.0422 1.68 0.0487 1.68 0.0487 3.4 0.0984 0.978 0.0209 1.96 0.0419 2.96 0.0635 3.29 0.698 4.52 1.92 6.58 4.55 0.25 2.75 0.25 2.75 0 5-4.07 1.99-6.85 2.08-11.3 1.56-4.37-0.426-8.11-0.496-12.5 0.254-3.14 0.259-6.15-0.0919-9.29-0.379-5.26-0.452-9.05-0.414-13.9 1.56l2 2c-1.13 0.454-2.27 0.908-3.44 1.38-3.61 1.2-3.61 1.2-4.56 3.62-0.619 0.124-1.24 0.247-1.88 0.375-2.85 0.839-3.64 2.1-5.12 4.62v3c-0.66 0.33-1.32 0.66-2 1-0.99-1.7-1.97-3.41-2.94-5.12-0.545-0.951-1.09-1.9-1.65-2.88-2.19-4.65-2.56-9.15-2.6-14.2-0.0142-0.851-0.0284-1.7-0.043-2.58 0.38-3.58 1.66-4.12 5.12-4.41z" fill="#F0F2F3"/>
<path transform="translate(678,773)" d="m0 0c1 2 1 2 0.566 3.93-0.26 0.78-0.521 1.56-0.789 2.36-0.289 0.87-0.577 1.74-0.874 2.64-0.319 0.93-0.637 1.86-0.966 2.82-0.319 0.948-0.639 1.9-0.968 2.87-1.88 5.49-3.93 10.8-6.28 16.1-5.08 11.5-6.86 23.5-2.67 35.7 1.49 3.82 3.05 7.6 4.66 11.4 1.36 3.23 2.63 6.49 3.89 9.77 2.83 7.4 5.66 14.7 9 21.9 1.9 4.12 3.46 8.22 4.76 12.6 0.695 2.16 0.695 2.16 2.68 4.88 0.125 2.69 0.125 2.69 0 5-2.94-1.47-3.61-3.69-5.12-6.56-0.539-1.01-1.08-2.02-1.63-3.07-0.41-0.782-0.82-1.56-1.24-2.37h-3c0.495-1.49 0.495-1.49 1-3-0.394-2.64-0.394-2.64-1-5h-2v-6c-0.66-0.33-1.32-0.66-2-1v-3c-0.66-0.33-1.32-0.66-2-1-0.175-1.54-0.35-3.08-0.523-4.62-1.06-5.31-3.2-10.5-5.48-15.4-0.66-0.33-1.32-0.66-2-1-0.124-0.804-0.247-1.61-0.375-2.44-0.206-0.846-0.413-1.69-0.625-2.56-0.619-0.268-1.24-0.536-1.88-0.812-2.94-1.64-3.49-3.86-4.53-6.95-0.902-3.41-1.28-6.73-1.59-10.2h-1v-8c-0.99-0.33-1.98-0.66-3-1 0.25-3.38 0.25-3.38 1-7 1.94-1.19 1.94-1.19 4-2 1.27-2.03 1.27-2.03 2-4h2c0.0743-3.34 0.0655-5.8-1-9 0.777-3.14 0.777-3.14 1.94-6.69 0.38-1.18 0.761-2.36 1.15-3.57 0.3-0.904 0.601-1.81 0.91-2.74 1.2-0.197 1.2-0.197 2.43-0.398 2.64-0.315 2.64-0.315 3.7-2.23 0.289-0.784 0.577-1.57 0.875-2.38 0.922-2.37 1.92-4.7 3-7 0.99-0.33 1.98-0.66 3-1z" fill="#F0F2F3"/>
<path transform="translate(736,621)" d="m0 0c0.382 5.98-0.947 10.4-3 16-0.483 1.48-0.962 2.96-1.44 4.44-1.65 4.94-3.6 9.74-5.56 14.6-0.723 1.81-1.45 3.63-2.17 5.44-1.02 2.57-2.06 5.14-3.09 7.71-0.701 1.74-1.4 3.49-2.1 5.23-2.22 5.46-4.56 10.6-7.64 15.6h-1c0.0174-0.922 0.0174-0.922 0.0352-1.86 0.00902-0.808 0.018-1.62 0.0273-2.45 0.0116-0.801 0.0232-1.6 0.0352-2.43-0.00108-2.43-0.00108-2.43-1.1-5.26 0.34-2.48 0.34-2.48 0.938-5.19 0.195-0.901 0.389-1.8 0.59-2.73 0.156-0.687 0.312-1.37 0.473-2.08 0.33 0.99 0.66 1.98 1 3h2c-0.33-1.98-0.66-3.96-1-6h-1c-0.375-5.13 0.854-8.38 3-13 0.526-1.67 0.526-1.67 1.06-3.38 0.938-2.62 0.938-2.62 2.94-3.62 0.433-1.24 0.433-1.24 0.875-2.5 1.12-2.5 1.12-2.5 3.25-3.31 0.619-0.0619 1.24-0.124 1.88-0.188-0.33-0.66-0.66-1.32-1-2 0.608-2.35 1.27-4.69 2-7 0.66 0.33 1.32 0.66 2 1 0.413-0.908 0.825-1.82 1.25-2.75 3.9-7.25 3.9-7.25 6.75-7.25z" fill="#F0F2F3"/>
<path transform="translate(785,927)" d="m0 0c5.65 2.46 5.65 2.46 7.16 4.81 0.914 2.37 1.25 4.41 1.47 6.94 0.0748 0.799 0.15 1.6 0.227 2.42 0.0735 0.905 0.0735 0.905 0.148 1.83h2v4h2c0.66 1.98 1.32 3.96 2 6 0.66-0.33 1.32-0.66 2-1 1.99 1.66 2.91 2.64 3.55 5.19 0.101 1.17 0.101 1.17 0.203 2.37 0.0773 0.785 0.155 1.57 0.234 2.38 0.0156 2.06 0.0156 2.06-0.984 4.06 0.75 3.08 0.75 3.08 2 6 0.66 0.33 1.32 0.66 2 1v5c0.66 0.33 1.32 0.66 2 1v4c0.66-0.99 1.32-1.98 2-3 0.66 0.99 1.32 1.98 2 3-0.438 2.12-0.438 2.12-1 4l1 1c0.141 2.67 0.0425 5.32 0 8-1.94-0.625-1.94-0.625-4-2-0.75-3.12-0.75-3.12-1-6h-2c-0.181-0.573-0.361-1.15-0.547-1.74-4.65-14.8-4.65-14.8-11.2-28.8-2.17-4.25-3.26-7.68-3.26-12.5h-2l-6-18z" fill="#F0F2F3"/>
<path transform="translate(1110 619)" d="m0 0c4.4 5.42 4.99 11.2 4.62 18-3.21-1.6-3.63-4.8-5-8-2.3-1.15-4.08-1.31-6.62-1.56-0.817-0.0838-1.63-0.168-2.48-0.254-0.626-0.0606-1.25-0.121-1.9-0.184 0.66-0.99 1.32-1.98 2-3-2.47-0.99-2.47-0.99-5-2v-3c4.69-1.56 9.75-1.95 14.4 0z" fill="#F0F2F3"/>
</svg>
