<?xml version="1.0" encoding="UTF-8"?>
<svg version="1.1" viewBox="0 0 1600 1600" width="1280" height="1280" xmlns="http://www.w3.org/2000/svg">
<path transform="translate(617 627)" d="m0 0h3.9c0.72-0 1.43-0 2.17-0.01 2.41 0 4.82 0.01 7.23 0.02 1.72-0.01 3.44-0.01 5.17-0.01 4.69-0 9.37 0 14.1 0.01 4.9 0.01 9.79 0.01 14.7 0.01 8.22 0 16.4 0.01 24.7 0.02 9.52 0.02 19 0.02 28.6 0.02 9.14 0 18.3 0.01 27.4 0.02h11.7c4.59 0 9.17 0.01 13.8 0.02h5.06c2.29 0 4.59 0.01 6.88 0.02h3.9c2.85 0.13 2.85 0.13 3.85 1.13 2.5 0.1 4.96 0.13 7.45 0.12h2.39c2.67 0 5.33 0 7.99-0.01h5.71c5.18 0 10.4 0 15.5-0.01 5.4-0.01 10.8-0.01 16.2-0.01 10.2 0 20.5-0.01 30.7-0.02 11.7-0.01 23.3-0.02 35-0.02 24-0.01 48-0.03 72-0.05v-1h151v2h2c-0.62 2.89-1.53 5.26-2.92 7.86-0.58 1.09-0.58 1.09-1.17 2.19-0.4 0.75-0.8 1.49-1.22 2.26-0.39 0.74-0.78 1.47-1.18 2.23-2.43 4.53-4.94 9.01-7.51 13.5h-2c-0.14 0.53-0.29 1.07-0.44 1.62-1.65 5.46-3.94 9.98-6.97 14.8-1.54 2.51-2.95 5.05-4.34 7.64-2.63 4.89-5.42 9.67-8.25 14.4-4.94 8.35-9.75 16.8-14 25.5h-2c-0.22 0.8-0.45 1.61-0.68 2.44-2.04 5.53-4.91 10.5-8.25 15.4-2.62 4.04-4.58 8.31-6.6 12.7-1.47 2.51-1.47 2.51-4.47 3.51-0.77 1.77-0.77 1.77-1.25 3.94-1.12 3.69-2.49 6.35-4.81 9.43-4.19 5.65-7.29 11.8-10.5 18-0.41 0.79-0.81 1.59-1.23 2.4-0.36 0.71-0.72 1.43-1.09 2.16-1.28 2.28-2.33 4.13-4.15 6.04-2.72 0.49-2.72 0.49-6.04 0.48-1.25 0.01-2.49 0.01-3.77 0.02-0.67 0-1.33-0.01-2.02-0.02-2.08-0.01-4.17-0.01-6.25 0.01-5.18 0.03-10.4 0.02-15.5 0-4.38 0-8.76 0-13.1 0.03-2.05 0.01-4.1-0.01-6.15-0.02-1.25 0-2.5 0.01-3.79 0.02-1.1-0.01-2.2-0.01-3.33-0.01-4.23 0.7-6.76 2.8-9.24 6.25-0.3 0.59-0.6 1.18-0.91 1.79-0.35 0.67-0.7 1.34-1.06 2.03-0.36 0.72-0.71 1.43-1.08 2.17-0.38 0.75-0.77 1.49-1.16 2.27-1.19 2.32-2.36 4.65-3.53 6.98-0.71 1.42-1.43 2.83-2.14 4.25-1.67 3.3-3.31 6.61-4.95 9.92-1.37 2.76-2.77 5.51-4.16 8.27-2.4 4.79-4.63 9.63-6.75 14.6h-2c-1.25 6.18-0.92 9.56 2.57 14.9 0.36 0.6 0.73 1.2 1.1 1.82 2.58 4.2 5.31 8.29 8.2 12.3 1.32 2.3 1.74 4.36 2.13 6.97 0.99 0.33 1.98 0.66 3 1 1.18 1.78 1.18 1.78 2.32 4.06 2.1 4.05 4.5 7.34 7.55 10.7 1.75 3.41 1.8 6.53 1.13 10.2-1.3 3.14-3.05 5.94-4.87 8.81-1.02 1.67-2.03 3.34-3.03 5.01-0.52 0.85-1.03 1.7-1.57 2.58-2.9 4.92-5.48 10-8.09 15.1-3.1 6.02-6.53 11.7-10.4 17.3-2.97 4.58-5.49 9.38-8.07 14.2-1.12 2.06-2.24 4.12-3.37 6.19-0.5 0.92-1.01 1.84-1.52 2.79-0.37 0.67-0.73 1.33-1.11 2.02h-2c-0.34 1.24-0.34 1.24-0.68 2.5-1.3 3.46-2.88 6.14-4.89 9.21-2.18 3.49-4.07 7.13-6 10.8-1.33 2.34-2.81 4.38-4.43 6.52-0.84 1.46-1.65 2.94-2.43 4.44-3.08 5.72-6.28 11.4-9.5 17-0.53 0.92-1.06 1.84-1.6 2.8-2.69 4.69-5.4 9.36-8.15 14-4.37 7.44-8.32 15.1-12.3 22.8-4.53-0.81-6.4-3.41-9-7-3-4.45-3-4.45-3-8h-2c-0.37-0.7-0.75-1.4-1.13-2.13-2.73-5.04-5.5-10-8.59-14.8-3.87-6.12-7.5-12.4-11-18.7-1.94-3.44-4.05-6.79-6.16-10.1-1.14-2.16-1.14-2.16-1.14-5.16h-2c-0.58-1.11-1.16-2.22-1.75-3.37-0.79-1.5-1.58-3-2.37-4.51-0.57-1.09-0.57-1.09-1.15-2.2-2.56-4.87-5.3-9.59-8.16-14.3-3.36-5.61-6.51-11.4-9.71-17-0.54-0.97-1.08-1.93-1.64-2.91-0.53-0.94-1.05-1.88-1.6-2.85-2.09-3.63-4.3-7.19-6.53-10.7-1.09-2.08-1.09-2.08-1.09-5.08h-2c-0.79-1.5-0.79-1.5-1.61-3.04-0.71-1.34-1.42-2.68-2.14-4.02-0.34-0.66-0.69-1.32-1.05-1.99-1.76-3.32-3.56-6.59-5.46-9.82-1.74-3.13-1.74-3.13-1.74-5.13h-2l-1-5h-2c-0.4-0.84-0.4-0.84-0.81-1.7-5.12-10.5-11-20.5-17.2-30.3-3.84-6.03-7.15-12.1-10.2-18.6-1.39-2.67-2.82-4.99-4.5-7.46-3.99-5.86-7.32-12.1-10.7-18.3-4.15-7.6-8.34-15-13.2-22.2-1.42-2.51-1.97-4.57-2.37-7.41h-2c-0.31-0.67-0.63-1.34-0.96-2.03-3.34-6.88-7.02-13.5-10.9-20-3.53-5.94-6.99-11.9-10.4-17.9-0.49-0.86-0.98-1.72-1.49-2.61-2.31-4.04-4.59-8.1-6.84-12.2-1.81-3.27-3.7-6.45-5.73-9.59-0.59-0.92-1.18-1.84-1.79-2.79-1.23-1.9-2.47-3.8-3.7-5.69-0.6-0.94-1.2-1.87-1.82-2.83-0.54-0.83-1.08-1.66-1.64-2.51-1.27-2.12-2.37-4.18-3.45-6.39-2.76-5.61-5.99-11-9.16-16.4-6.9-11.7-6.9-11.7-9.55-16.5-1.96-3.56-4-7.05-6.07-10.5-0.61-1.04-1.23-2.09-1.86-3.16-1.28-2.16-2.57-4.31-3.85-6.47-0.61-1.03-1.22-2.06-1.85-3.12-0.55-0.94-1.11-1.87-1.68-2.83-1.21-2.4-1.21-2.4-1.21-5.4h-2c-0.55-1.08-1.11-2.15-1.68-3.26-4.24-8.13-8.64-16-13.5-23.8-2.54-4.19-4.71-8.53-6.8-13 2-2 2-2 4.98-2.25zm51 1.25v1h12v-1h-12z" fill="#A7D5FA"/>
<path transform="translate(597,636)" d="m0 0c4.01 3.67 6.53 7.14 9 12v2h2c2.01 3.62 4 7.25 6 10.9 0.57 1.03 1.14 2.06 1.73 3.12 0.82 1.48 0.82 1.48 1.65 2.99 0.5 0.91 1 1.82 1.52 2.76 1.1 2.25 1.1 2.25 1.1 4.25h2c0.24 0.52 0.49 1.05 0.74 1.59 3.9 8.07 8.48 15.7 13.1 23.4 1.64 2.76 3.23 5.55 4.82 8.33 3 5.19 6.33 10.1 9.78 15 1.58 2.66 2.21 4.65 2.6 7.69h2c0.38 0.7 0.38 0.7 0.78 1.41 1.4 2.53 2.81 5.06 4.22 7.59 0.34 0.62 0.69 1.23 1.04 1.87 1.15 2.06 2.31 4.13 3.46 6.19 0.55 0.99 0.55 0.99 1.11 2 2.26 4.03 4.64 7.97 7.11 11.9 2.27 3.66 4.39 7.4 6.53 11.1 3.46 6.02 6.97 12 10.6 17.9 3.07 5.08 5.98 10.2 8.79 15.4 1.87 3.42 3.88 6.75 5.91 10.1 1.16 1.94 2.29 3.9 3.4 5.87 1.98 3.48 4.17 6.78 6.4 10.1 5.85 8.92 10.4 18.4 13.7 28.5-28.4 0.15-56.8 0.3-85.3 0.44l-39.6 0.21c-11.5 0.06-23 0.12-34.6 0.18-6.08 0.02-12.2 0.05-18.2 0.09-27.8 0.16-55.5 0.06-83.3-0.92 0.6-4.65 1.66-7.14 4.54-10.9 2.43-3.53 4.18-7.39 6.03-11.2 1.35-2.72 2.85-5.28 4.43-7.87 0.5-0.99 0.5-0.99 1-2h2c0.29-0.73 0.57-1.46 0.87-2.22 3.22-7.91 7.48-15.1 12-22.3 2.92-4.7 5.63-9.53 8.36-14.4 1.11-1.96 2.26-3.9 3.43-5.83 1.41-2.25 1.41-2.25 2.33-4.88 1-2.38 1-2.38 2.44-3.79 1.68-1.71 2.54-3.24 3.56-5.4 0.34-0.7 0.68-1.4 1.02-2.12 0.33-0.68 0.65-1.37 0.98-2.07 2.79-5.89 2.79-5.89 5-7 0.97-1.64 1.88-3.31 2.75-5 2.37-4.47 4.95-8.63 7.8-12.8 1.95-2.96 3.62-6.03 5.27-9.16 1.18-2.04 1.18-2.04 2.64-3.93 1.86-2.55 3.16-5.2 4.54-8.05 1.85-3.8 3.79-7.46 6-11.1 0.95-1.67 1.89-3.33 2.84-5 1.31-2.27 2.67-4.51 4.04-6.75 2.13-3.53 4.13-7.1 6.06-10.8 1.95-3.63 4.04-6.94 6.5-10.2 4.52-6.25 7.48-13.2 10.6-20.2h2c0.33-0.68 0.65-1.35 0.99-2.05 0.44-0.89 0.87-1.78 1.32-2.7 0.65-1.32 0.65-1.32 1.3-2.67 1.29-2.4 2.72-4.43 4.39-6.58 1.02-1.66 2.02-3.32 3-5z" fill="#A7D5FA"/>
<path transform="translate(722,860)" d="m0 0c3 1 3 1 3 1z" fill="#000002"/>
<path transform="translate(790,627)" d="m0 0c3 1 3 1 3 1z" fill="#A8D6FB"/>
</svg>
