<?xml version="1.0" encoding="UTF-8"?>
<svg version="1.1" viewBox="0 0 1600 1600" width="1280" height="1280" xmlns="http://www.w3.org/2000/svg">
<path transform="translate(267,318)" d="m0 0c2.4-0.38 2.4-0.38 5.5-0.38 1.17-0.01 2.35-0.02 3.56-0.03 1.95 0.01 1.95 0.01 3.95 0.02 1.39 0 2.78-0.01 4.16-0.01 3.83-0.02 7.66-0.01 11.5-0.01 4.13 0.01 8.26 0 12.4-0.01 8.09-0.02 16.2-0.02 24.3-0.02 6.58 0.01 13.2 0 19.7 0h2.83c1.9 0 3.79-0.01 5.69-0.01 17.8-0.01 35.6-0.01 53.4 0.01 16.3 0.01 32.6-0.01 48.9-0.03 16.7-0.03 33.4-0.04 50.2-0.03 9.4 0.01 18.8 0 28.2-0.01 8-0.02 16-0.02 24 0 4.09 0.01 8.17 0.01 12.2-0.01 3.74-0.01 7.48-0.01 11.2 0.01 2 0.01 4-0.01 5.99-0.02 1.77 0.01 1.77 0.01 3.58 0.03h3.09c5.41 1.02 8.12 6.31 11.2 10.5 0.77 1.03 1.53 2.06 2.32 3.12 0.7 0.95 1.4 1.9 2.12 2.88 0.59 0.74 1.17 1.49 1.78 2.25 1.22 1.75 1.22 1.75 1.22 3.75h2c1.16 1.51 1.16 1.51 2.5 3.69 2.65 4.12 5.5 8.01 8.5 11.9 0.43 0.56 0.87 1.12 1.32 1.7 0.42 0.55 0.85 1.1 1.29 1.66 3.33 4.29 6.58 8.63 9.8 13 2.8 3.76 5.66 7.44 8.59 11.1 3.43 4.27 6.74 8.6 10 13 1.5 2 3 4 4.5 6 1.14 1.53 1.14 1.53 2.31 3.09 1.36 1.8 2.72 3.6 4.1 5.39 0.82 1.06 0.82 1.06 1.65 2.14 0.48 0.62 0.95 1.23 1.44 1.86 1 1.52 1 1.52 1 3.52 0.99 0.33 1.98 0.66 3 1 1.39 1.96 2.71 3.97 4 6 1.57 2.08 3.15 4.14 4.75 6.19 3.94 5.07 7.74 10.2 11.5 15.4 1.52 2.05 3.09 4.01 4.76 5.94 2 2.44 2 2.44 2 4.44h2c1.3 1.69 1.3 1.69 2.75 4 2.35 3.65 4.81 7.14 7.44 10.6 1.43 1.91 2.85 3.82 4.25 5.75 5.95 8.19 12.1 16.2 18.4 24.1 1.69 2.12 3.36 4.26 5.02 6.4 0.72 0.92 0.72 0.92 1.46 1.86 3.61 4.71 7.14 9.47 10.7 14.2 4.67 6.24 9.34 12.5 14.2 18.6 2.6 3.37 5.15 6.79 7.7 10.2 3.74 5 7.5 9.99 11.3 14.9 0.41 0.52 0.81 1.05 1.23 1.59 2.04 2.64 4.09 5.29 6.14 7.92 4.78 6.15 9.4 12.4 13.9 18.8 3.22 4.55 6.65 8.89 10.2 13.2 1.4 1.89 1.4 1.89 1.4 3.89 0.99 0.33 1.98 0.66 3 1 1.37 1.99 2.47 4.06 3.62 6.19 1.66 2.18 2.71 2.45 5.38 2.81 0.19-0.66 0.37-1.32 0.56-2 2.35-4.91 6.16-8.78 10-12.6 1.63-1.6 1.63-1.6 3.4-4.45l1 1c0.62-1.39 0.62-1.39 1.25-2.81 1.72-3.14 2.91-4.2 5.75-6.19l1-3h3c0.23-0.72 0.45-1.44 0.69-2.19 1.58-3.39 3.61-5.23 6.31-7.81 0.89-1.03 1.76-2.07 2.62-3.12 1.75-2.11 3.46-3.96 5.38-5.88 3.09-3.43 6.12-6.9 9-10.5 3.61-4.51 7.36-8.9 11.5-12.9 3.91-4.01 7.98-8.52 10.5-13.6h3c0.23-0.72 0.45-1.44 0.69-2.19 1.58-3.39 3.61-5.23 6.31-7.81 1.67-2 3.34-4 5-6l4-4c3.27-3.56 6.39-7.05 9-11.1 2.16-3.1 4.45-5.1 7.41-7.39 1.8-1.68 2.54-3.28 3.59-5.49 1.64-1.69 3.31-3.35 5-5 1.67-2 3.34-4 5-6l4-4c3.31-3.68 6.54-7.43 9.69-11.2 2.01-2.39 4.1-4.54 6.31-6.75 4.78-5.19 4.78-5.19 8.75-11 0.62-0.99 0.62-0.99 1.25-2h3c0.25-0.76 0.5-1.53 0.75-2.31 1.38-2.97 2.64-3.84 5.25-5.69l1-3h3c0.23-0.72 0.45-1.44 0.69-2.19 1.57-3.37 3.59-5.29 6.31-7.81 2.35-2.18 2.95-2.84 4-6h3c0.23-0.72 0.45-1.44 0.69-2.19 1.57-3.38 3.62-5.25 6.31-7.81 2.17-2.6 4.12-5.18 6-8l1 1 1-2c2.34-3.51 5.1-6.15 8.16-9.04 1.8-1.92 2.74-3.59 3.84-5.96 1.31-1.36 2.65-2.69 4-4 1.67-2 3.34-4 5-6l3-3c1.05-1.18 2.1-2.36 3.12-3.56 0.78-0.9 0.78-0.9 1.58-1.82 1.38-1.6 1.38-1.6 2.3-3.62h3l0.75-2.25c1.36-2.99 2.79-4.53 5.19-6.75 2.28-2.18 4-3.9 5.62-6.62 1.8-2.98 4.07-4.72 6.74-6.91 2.23-1.93 3.94-4.1 5.7-6.47 0.64-0.78 1.28-1.57 1.94-2.38 1.98-2.51 3.77-5.1 5.52-7.78 0.51-0.6 1.02-1.21 1.54-1.84 0.7-0.85 1.41-1.7 2.13-2.58 5.29-4.3 12.9-3.08 19.3-3 1.59 0 3.18-0.01 4.77-0.01 4.31-0.01 8.61 0.02 12.9 0.05 4.5 0.03 9.01 0.03 13.5 0.03 7.57 0.01 15.1 0.04 22.7 0.08 10.7 0.05 21.4 0.08 32 0.09 7.4 0.02 14.8 0.04 22.2 0.06 1.79 0 3.59 0.01 5.38 0.01 5.11 0.02 10.2 0.04 15.3 0.07 1.54 0 3.09 0.01 4.64 0.01 2.11 0.01 4.23 0.02 6.34 0.04 1.77 0 1.77 0 3.58 0.01 2.83 0.13 5.38 0.49 8.13 1.14-0.66 0.62-1.32 1.24-2 1.88-3.29 3.27-6.08 6.92-8.95 10.6-4.36 5.44-8.9 10.8-14 15.6h-2c-0.27 0.8-0.54 1.61-0.81 2.44-0.59 1.27-0.59 1.27-1.19 2.56-1.49 0.5-1.49 0.5-3 1-0.33 0.82-0.66 1.65-1 2.5-0.33 0.82-0.66 1.65-1 2.5-1.49 0.5-1.49 0.5-3 1-1.08 1.85-1.08 1.85-2 4-3.43 5.3-7.34 9.43-12.3 13.4-1.86 1.77-2.65 3.33-3.73 5.64-1.64 1.69-3.31 3.35-5 5-0.91 1.1-1.8 2.2-2.69 3.31-0.76 0.89-1.52 1.78-2.31 2.69h-2c-0.36 0.84-0.36 0.84-0.72 1.69-2.11 3.81-5.22 6.71-8.19 9.87-1.84 2.15-2.85 3.95-4.09 6.44-1.62 1.53-1.62 1.53-3.44 2.94-2.97 2.44-4.66 4.69-6.56 8.06-2.56 2.81-2.56 2.81-5 5h-2l-2 5h-2c-0.23 0.53-0.45 1.06-0.69 1.61-1.74 3.18-3.99 5.87-6.31 8.64-0.45 0.55-0.9 1.11-1.37 1.68-1.16 1.4-2.39 2.74-3.63 4.07h-2c-0.35 0.81-0.35 0.81-0.7 1.64-1.68 3.05-3.8 5.51-6.05 8.17-0.45 0.53-0.9 1.06-1.36 1.61-1.29 1.53-2.59 3.05-3.89 4.58-0.61 0.73-1.22 1.45-1.85 2.2-2.6 3.07-5.31 5.96-8.15 8.8-1.53 1.76-3.04 3.53-4.54 5.32-1.42 1.63-2.92 3.15-4.46 4.68-1.14 1.26-2.26 2.53-3.38 3.81-0.6 0.7-1.21 1.4-1.84 2.12-1.57 1.83-3.09 3.69-4.59 5.57-0.72 0.82-1.45 1.65-2.19 2.5h-2c-0.27 0.64-0.54 1.28-0.81 1.94-1.19 2.06-1.19 2.06-4.19 3.06-0.29 0.72-0.58 1.44-0.88 2.19-1.41 3.53-3.63 6-6.12 8.81-1.02 1.21-2.04 2.42-3.06 3.62-2.21 2.58-4.54 4.98-6.94 7.38l-1 2h-2c-0.27 0.64-0.54 1.28-0.81 1.94-1.19 2.06-1.19 2.06-4.19 3.06-0.33 0.83-0.66 1.65-1 2.5-0.33 0.83-0.66 1.65-1 2.5-0.99 0.33-1.98 0.66-3 1-0.7 1.32-1.36 2.65-2 4-2.87 3.77-5.95 7.37-9 11-0.69 0.82-1.37 1.65-2.08 2.5-0.61 0.72-1.23 1.44-1.86 2.19-0.54 0.64-1.09 1.28-1.65 1.95-1.41 1.36-1.41 1.36-3.41 1.36l-2 5h-2c-0.27 0.64-0.54 1.28-0.81 1.94-1.19 2.06-1.19 2.06-4.19 3.06l-2 4c-0.99 0.33-1.98 0.66-3 1-0.29 0.72-0.58 1.44-0.88 2.19-1.41 3.53-3.63 6-6.12 8.81-1.04 1.23-2.08 2.46-3.12 3.69-1.4 1.64-2.8 3.23-4.34 4.76-2.47 2.49-4.67 5.22-6.92 7.91-0.53 0.54-1.07 1.08-1.62 1.64h-2c-0.27 0.8-0.54 1.61-0.81 2.44-0.39 0.84-0.79 1.69-1.19 2.56-0.99 0.33-1.98 0.66-3 1-0.69 1.32-1.35 2.66-2 4-1.56 2.14-3.21 4.03-5 6h-2c-0.27 0.58-0.54 1.17-0.81 1.77-1.2 2.26-2.53 4.04-4.19 5.98-0.52 0.61-1.03 1.23-1.56 1.86-1.44 1.39-1.44 1.39-3.44 1.39-0.21 0.68-0.41 1.36-0.62 2.06-2.11 4.51-5.4 7.97-8.91 11.5-2.82 2.84-5.68 5.89-7.47 9.48h-3c-0.06 0.56-0.12 1.11-0.19 1.69-1.14 3.26-3.33 4.95-5.81 7.31l-2 3h-2c-0.22 0.54-0.45 1.09-0.68 1.65-1.72 3.07-4.03 5.44-6.44 7.97-4.26 4.55-8.26 9.23-12.1 14.1-3.95 5.02-8.05 9.93-12.8 14.2h-2c-0.25 0.74-0.5 1.49-0.75 2.25-1.35 2.97-2.89 4.54-5.25 6.75l-1 2h-3c-0.12 0.93-0.12 0.93-0.25 1.88-0.75 2.12-0.75 2.12-2.81 3.37-0.64 0.25-1.28 0.5-1.94 0.75 0.48 4.76 1.58 7.26 4.69 10.9 0.72 0.85 1.44 1.71 2.18 2.59 0.7 0.84 1.41 1.67 2.13 2.53 1.55 2.02 3.07 4.06 4.58 6.11 1.08 1.44 2.2 2.86 3.33 4.27 2.17 2.72 4.27 5.5 6.34 8.31 0.71 0.95 1.41 1.9 2.14 2.88 1.61 2.43 1.61 2.43 1.61 4.43h2c1.27 1.57 2.47 3.21 3.62 4.88 3.39 4.79 6.95 9.34 10.7 13.8 1.71 2.35 2.7 4.55 3.66 7.29h2c1.65 2.11 3.18 4.23 4.69 6.44 0.9 1.3 1.81 2.59 2.72 3.89 0.44 0.63 0.89 1.27 1.34 1.92 1.57 2.19 3.2 4.32 4.87 6.44 3.28 4.14 6.38 8.4 9.48 12.7 3.78 5.22 7.66 10.4 11.7 15.4 6.74 8.38 13.1 17 19.4 25.8 1.3 1.76 2.65 3.48 4.05 5.16 1.77 2.31 1.77 2.31 1.77 4.31h2c1.26 1.65 1.26 1.65 2.69 3.94 2.75 4.29 5.77 8.26 8.99 12.2 1.32 1.85 1.32 1.85 1.32 3.85h2c3 3.46 3 3.46 3 6h2c0.93 1.37 1.85 2.75 2.73 4.15 1.46 2.13 3.11 3.99 4.83 5.91 2.54 2.85 4.59 5.59 6.44 8.94 2.37 4.16 2.37 4.16 6 7 1.01 1.73 2.02 3.46 2.98 5.22 1.05 1.93 1.05 1.93 2.77 4.09 1.25 1.69 1.25 1.69 1.25 3.69h2v2h2c1.12 1.48 1.12 1.48 2.44 3.62 2.75 4.27 5.73 8.28 8.87 12.3 0.48 0.6 0.95 1.2 1.44 1.81 2.96 3.73 5.97 7.4 9 11.1 3.36 4.08 6.44 8.28 9.43 12.6 3.47 4.98 7.17 9.78 10.8 14.6 1 1.33 2 2.67 3 4 0.7 0.93 0.7 0.93 1.42 1.89 1.21 1.62 2.42 3.25 3.63 4.88 4.49 6.04 9.11 11.9 13.9 17.7 4.11 5.02 7.88 10.2 11.6 15.5 0.65 0.91 0.65 0.91 1.31 1.84 0.42 0.6 0.85 1.2 1.29 1.82 3.29 4.63 6.78 9.05 10.4 13.4 1.4 1.89 1.4 1.89 1.4 3.89h2c1.26 1.65 1.26 1.65 2.69 3.94 2.75 4.29 5.77 8.26 8.99 12.2 1.32 1.85 1.32 1.85 1.32 3.85 0.99 0.33 1.98 0.66 3 1 0.95 1.36 1.9 2.73 2.78 4.14 1.39 2.11 2.91 4.07 4.47 6.05 3.43 4.36 6.7 8.83 9.95 13.3 1.15 1.58 2.32 3.14 3.53 4.68 1.27 1.8 1.27 1.8 1.27 3.8h2c0.94 1.35 1.86 2.71 2.74 4.1 3.11 4.69 6.76 9.02 10.3 13.4 0.63 0.8 1.27 1.6 1.93 2.43 0.58 0.73 1.17 1.46 1.77 2.21 1.29 1.85 1.29 1.85 1.29 3.85h2c0.98 1.4 1.95 2.81 2.86 4.25 1.9 2.92 4.06 5.63 6.2 8.37 1.65 2.13 3.29 4.25 4.94 6.38 0.6 0.75 1.19 1.5 1.81 2.27 1.19 1.73 1.19 1.73 1.19 3.73h2c1.3 1.69 1.3 1.69 2.75 4 2.39 3.71 4.89 7.27 7.56 10.8 1.26 1.66 2.51 3.33 3.75 5 4.52 6.08 9.16 12 14 17.8 4.95 6.04 4.95 6.04 4.95 8.38h2c1.19 1.58 1.19 1.58 2.56 3.81 2.42 3.76 5.02 7.2 7.88 10.6 3.54 4.26 6.79 8.62 9.92 13.2 2.09 3 4.31 5.89 6.57 8.77 1.07 1.59 1.07 1.59 1.07 3.59h2c1.19 1.58 1.19 1.58 2.56 3.81 3.13 4.88 6.71 9.22 10.5 13.6 1.88 2.49 2.96 4.64 3.95 7.58h2l1 4c-42 0.18-84.1 0.32-126 0.41-4.97 0.01-9.93 0.02-14.9 0.03-0.99 0-1.98 0-3 0.01-16 0.03-32 0.09-48 0.17-16.4 0.07-32.8 0.12-49.2 0.13-10.1 0.01-20.3 0.05-30.4 0.11-6.95 0.05-13.9 0.06-20.8 0.05-4.01-0.01-8.02 0-12 0.04-3.68 0.04-7.35 0.04-11 0.02-1.95-0.01-3.91 0.03-5.86 0.06-8.36-0.11-8.36-0.11-11.9-2.77-1.78-2.01-3.25-4.02-4.71-6.26-0.8-0.95-1.61-1.9-2.44-2.88-1.56-2.12-1.56-2.12-1.56-4.12h-2c-1.26-1.65-1.26-1.65-2.69-3.94-2.75-4.29-5.77-8.26-8.99-12.2-1.32-1.85-1.32-1.85-1.32-3.85h-2c-0.96-1.39-1.92-2.79-2.83-4.22-2.07-3.14-4.49-5.99-6.86-8.9-5.26-6.52-10.3-13.2-15.3-19.9-0.58-0.73-1.15-1.46-1.75-2.21-1.25-1.79-1.25-1.79-1.25-3.79-0.99-0.33-1.98-0.66-3-1-0.97-1.38-1.94-2.77-2.83-4.2-2.23-3.44-4.8-6.62-7.29-9.86-0.87-1.12-0.87-1.12-1.74-2.27-1.71-2.22-3.43-4.45-5.14-6.67-0.91-1.18-1.82-2.36-2.72-3.54-0.62-0.81-0.62-0.81-1.26-1.63-1.19-1.56-2.39-3.12-3.59-4.68-1.75-2.26-3.5-4.52-5.27-6.77-0.47-0.6-0.93-1.19-1.41-1.81-0.9-1.15-1.8-2.29-2.7-3.43-3.05-3.92-3.05-3.92-3.05-6.14h-2c-0.96-1.37-1.9-2.75-2.8-4.16-2.26-3.46-4.86-6.69-7.39-9.96-1.16-1.51-2.32-3.02-3.47-4.53-0.57-0.74-1.14-1.47-1.72-2.23-2.94-3.84-5.83-7.72-8.72-11.6-1.34-1.78-2.73-3.51-4.15-5.22-1.75-2.3-1.75-2.3-1.75-4.3h-2c-1.5-1.93-2.88-3.86-4.25-5.88-5.72-8.21-11.9-16.1-18-23.9-4.46-5.68-8.88-11.4-13.3-17.1-3.54-4.61-7.1-9.2-10.7-13.8-5.27-6.75-10.5-13.5-15.6-20.4-3.01-3.99-6.08-7.93-9.16-11.9-7.03-9.01-14-18-20.9-27.2-6.91-9.23-14-18.3-21.1-27.4-3.72-4.77-7.39-9.58-11-14.4-3.02 0.07-5.23 0.3-7.52 2.38-1.55 1.83-3.02 3.71-4.48 5.62-1.05 1.26-2.12 2.51-3.19 3.75-0.47 0.55-0.93 1.1-1.42 1.67-1.4 1.59-2.89 3.08-4.39 4.58-1.21 1.43-2.41 2.87-3.61 4.32-1.49 1.8-3 3.59-4.51 5.37-0.48 0.56-0.96 1.12-1.45 1.7-0.98 1.1-2 2.16-3.05 3.19-1.49 1.39-1.49 1.39-2.38 3.42h-3c-0.08 0.62-0.16 1.24-0.25 1.88-0.75 2.12-0.75 2.12-2.69 3.06-2.27 0.88-2.27 0.88-2.87 3.25-1.5 3.55-3.7 5.43-6.46 8.05-1.93 1.85-1.93 1.85-3.73 4.82-2.15 3.16-4.42 5.13-7.41 7.45-1.8 1.68-2.54 3.28-3.59 5.49-1.64 1.69-3.31 3.35-5 5-1.58 1.86-3.13 3.74-4.67 5.64-0.44 0.45-0.88 0.9-1.33 1.36h-2l-2 5h-2c-0.23 0.73-0.47 1.45-0.71 2.2-1.52 3.3-3.35 5.12-5.98 7.61-5.18 5.02-9.96 10.2-14.4 15.9-1.88 2.31-1.88 2.31-4.17 4.56-3.34 3.39-6.27 7.01-9.22 10.7-1.12 1.37-2.3 2.7-3.49 4.02h-2c-0.37 0.84-0.37 0.84-0.75 1.69-1.48 2.73-3.18 4.99-5.25 7.31h-2c-0.24 0.54-0.47 1.08-0.72 1.64-1.62 2.99-3.63 5.47-5.78 8.11-1.19 1.48-1.19 1.48-2.41 2.98-0.69 0.75-1.38 1.5-2.09 2.27h-2c-0.4 0.87-0.4 0.87-0.81 1.75-1.22 2.31-2.49 4.27-4.19 6.25h-2c-0.27 0.8-0.54 1.61-0.81 2.44-0.39 0.84-0.79 1.69-1.19 2.56-0.99 0.33-1.98 0.66-3 1-1.06 1.85-1.06 1.85-2 4-3.25 4.79-6.85 8.96-11 13-1.34 1.66-2.68 3.32-4 5-0.46 0.46-0.92 0.92-1.4 1.39-2.46 2.48-4.64 5.19-6.88 7.87-1.72 1.74-1.72 1.74-4.72 2.74-0.69 1.32-1.35 2.66-2 4-1.44 1.7-2.92 3.37-4.44 5-3.26 3.53-3.26 3.53-6.22 7.31-0.66 0.84-0.66 0.84-1.34 1.69h-2c-0.27 0.8-0.54 1.61-0.81 2.44-0.39 0.84-0.79 1.69-1.19 2.56-0.99 0.33-1.98 0.66-3 1-1.22 2.5-1.22 2.5-2 5h-2c-0.4 0.96-0.4 0.96-0.81 1.94-1.19 2.06-1.19 2.06-4.19 3.06-0.69 1.32-1.35 2.66-2 4-2.23 2.6-4.56 5.07-6.91 7.56-2.11 2.25-2.11 2.25-3.12 4.53-1.25 2.45-2.85 3.73-4.97 5.47-2.56 2.11-4.13 3.64-6 6.44h-2c-0.27 0.8-0.54 1.61-0.81 2.44-0.39 0.84-0.79 1.69-1.19 2.56-0.99 0.33-1.98 0.66-3 1-0.33 0.83-0.66 1.65-1 2.5-0.33 0.83-0.66 1.65-1 2.5-0.99 0.33-1.98 0.66-3 1-1.06 1.85-1.06 1.85-2 4-2.99 4.37-6.2 8.32-10 12-1.53 1.76-3.04 3.53-4.54 5.32-1.42 1.63-2.93 3.15-4.46 4.68-1.01 1.16-2.01 2.32-3 3.5-1.49 1.77-2.97 3.47-4.62 5.09-1.49 1.38-1.49 1.38-2.38 3.41h-3c-0.23 0.7-0.45 1.4-0.69 2.12-1.6 3.52-3.75 6-6.31 8.88-0.44 0.55-0.88 1.09-1.34 1.65-2.31 1.88-3.88 1.73-6.84 1.75-1.08 0.01-2.15 0.02-3.26 0.04-1.18 0-2.35-0.01-3.57-0.01-1.24 0.01-2.49 0.02-3.77 0.03-3.42 0.03-6.84 0.04-10.3 0.05-3.61 0.01-7.23 0.03-10.8 0.06-6.88 0.04-13.8 0.07-20.6 0.09-7.69 0.03-15.4 0.07-23.1 0.12-28.8 0.17-57.6 0.24-86.4 0.22l4-8h3c0.09-0.84 0.09-0.84 0.19-1.69 1.15-3.28 3.3-4.92 5.81-7.31 0.91-1.09 1.8-2.2 2.69-3.31 0.76-0.89 1.52-1.78 2.31-2.69h2c0.25-0.74 0.5-1.49 0.75-2.25 1.4-3.07 2.81-4.44 5.25-6.75 3.82-4.22 7.46-8.55 11-13 3.2-3.83 6.47-7.47 10-11 1.68-1.89 3.34-3.81 5-5.72 2.18-2.48 4.4-4.91 6.62-7.34 2.54-2.8 4.9-5.55 7-8.69 2.18-3.22 4.82-5.41 7.82-7.85 2.06-1.85 3.2-3.99 4.56-6.4 1.65-1.69 3.31-3.35 5-5 1.35-1.65 2.68-3.32 4-5 3.49-4.21 7.13-8.13 11-12 1.67-2 3.34-4 5-6l4-4c1.56-1.86 3.1-3.73 4.63-5.61 0.45-0.46 0.91-0.92 1.37-1.39h2c0.23-0.7 0.45-1.4 0.69-2.12 1.58-3.48 3.81-6.05 6.31-8.88 1.02-1.21 2.04-2.42 3.06-3.62 2.21-2.58 4.54-4.98 6.94-7.38 3.35-3.75 3.35-3.75 6-8h3c0.25-0.74 0.5-1.49 0.75-2.25 1.4-3.07 2.81-4.44 5.25-6.75 2.37-2.63 4.68-5.32 7-8l5.25-6c1.17-1.34 2.34-2.68 3.5-4.04 3.43-3.97 6.95-7.72 10.8-11.3 1.59-1.77 2.44-3.52 3.48-5.64 1.33-1.01 2.66-2.01 4-3l1-3h3c0.23-0.53 0.45-1.06 0.69-1.61 1.74-3.18 3.99-5.87 6.31-8.64 0.68-0.83 0.68-0.83 1.37-1.68 1.16-1.4 2.39-2.74 3.63-4.07h2c0.23-0.72 0.45-1.44 0.69-2.19 1.57-3.36 3.6-5.3 6.31-7.81 2.16-2.03 2.16-2.03 4-5 2.95-3.62 5.87-7.12 9.56-10 4.58-3.75 7.93-8.67 10.4-14h3c0.25-0.74 0.5-1.49 0.75-2.25 1.39-3.05 2.82-4.46 5.25-6.75 1.01-1.16 2.01-2.32 3-3.5 1.61-1.91 3.2-3.7 5-5.44 1.86-1.91 3.36-3.85 4.94-6 2.46-3.33 5.05-6.2 8.06-9.06 1.4-1.35 2.8-2.7 4.19-4.06 1.01-0.98 1.01-0.98 2.04-1.98 1.83-1.85 1.83-1.85 2.79-4.02 1.15-2.28 2.41-3.32 4.42-4.88 2.97-2.44 4.66-4.69 6.56-8.06 2.56-2.81 2.56-2.81 5-5h2c0.31-0.78 0.62-1.57 0.94-2.38 1.06-2.62 1.06-2.62 2.06-4.62h3c0.23-0.7 0.45-1.4 0.69-2.12 2.55-5.6 7.01-9.58 11.3-13.9 1.67-2 3.34-4 5-6 0.72-0.7 1.44-1.4 2.19-2.12 1.88-1.74 1.88-1.74 2.69-3.82 1.12-2.06 1.12-2.06 4.06-4.5 3.08-2.29 3.08-2.29 4.5-5 1.87-3.07 4.12-4.84 6.94-7.03 1.8-1.7 2.56-3.31 3.62-5.53 1.33-1.01 2.66-2.01 4-3l1-3h3c0.23-0.72 0.45-1.44 0.69-2.19 1.58-3.39 3.63-5.19 6.31-7.81 0.95-1.28 1.89-2.57 2.81-3.88 2.14-2.93 4.32-5.2 7.13-7.5 4.07-3.37 6.77-7.24 9.61-11.7 0.48-0.64 0.96-1.28 1.45-1.94h2c0.21-0.72 0.41-1.44 0.62-2.19 1.83-3.74 4.08-5.3 7.38-7.81-0.61-3.92-2.54-6.42-4.88-9.56-0.69-0.95-1.39-1.9-2.11-2.88-1.59-2.03-3.18-3.76-5.01-5.56-0.96-1.21-1.9-2.44-2.81-3.69-1.62-2.19-3.24-4.38-4.91-6.54-0.82-1.06-0.82-1.06-1.66-2.15-0.75-0.97-0.75-0.97-1.52-1.96-1.1-1.66-1.1-1.66-1.1-3.66h-2c-1.16-1.29-1.16-1.29-2.5-3.19-2.62-3.62-5.32-7.16-8.06-10.7-4.63-5.96-9.01-12.1-13.4-18.2-4.42-6.14-9.11-12-14-17.8-0.52-0.62-1.03-1.24-1.57-1.87-0.68-0.8-0.68-0.8-1.38-1.62-1.24-1.85-1.68-3.46-2.1-5.64h-2c-1.71-2.2-3.3-4.4-4.88-6.69-2.92-4.21-5.87-8.33-9.12-12.3-6.55-8.27-13-16.6-19.4-25-3.45-4.52-6.94-9.01-10.5-13.4-1.07-1.57-1.07-1.57-1.07-3.57h-2c-1.45-1.74-2.81-3.54-4.12-5.38-0.73-0.99-1.45-1.99-2.2-3.02-1.68-2.6-1.68-2.6-1.68-4.6h-2c-1.56-1.91-1.56-1.91-3.44-4.62-3.77-5.34-7.74-10.5-11.9-15.5-2.53-3.15-4.42-6.01-5.68-9.86h-2v-2h-2c-4-5.41-4-5.41-4-8h-2c-0.92-1.31-1.82-2.62-2.68-3.97-4.57-7.02-9.74-13.6-15-20.1-7.28-9.13-14.3-18.5-21.3-27.8-6.01-8.05-12.2-16-18.4-23.9-1.78-2.28-3.56-4.57-5.34-6.86-2.46-3.17-4.94-6.3-7.46-9.41-8.88-11.1-8.88-11.1-8.88-13.9h-2c-1.52-1.97-2.92-3.94-4.31-6-3.88-5.6-7.98-10.9-12.3-16.2-4.26-5.16-8.33-10.4-12.2-15.8-3.38-4.66-6.91-9.22-10.4-13.8-1.05-1.37-2.1-2.75-3.16-4.12-1.1-1.44-2.2-2.87-3.31-4.3-0.55-0.71-1.1-1.43-1.67-2.16-0.5-0.65-1-1.29-1.51-1.96-1.09-1.65-1.09-1.65-1.09-3.65h-2c-1.63-1.9-3.13-3.81-4.62-5.81-0.45-0.59-0.9-1.19-1.36-1.8-3.38-4.48-6.68-9.03-9.97-13.6-6.06-8.27-12.4-16.3-18.8-24.4-4.06-5.16-7.98-10.4-11.9-15.7-3.67-4.9-7.47-9.66-11.4-14.3-2.16-2.71-4.03-5.54-5.94-8.43-1.57-2.1-3.14-4.18-4.75-6.25-0.44-0.56-0.87-1.13-1.32-1.71-3.33-4.3-6.73-8.55-10.1-12.8-2.09-2.63-4.11-5.31-6.11-8.01-7.4-9.87-15-19.6-22.7-29.2l2-3zm191 91c0.71 4.4 1.72 5.96 5 9 1.2 1.62 2.37 3.27 3.5 4.94 2.37 3.48 4.85 6.78 7.5 10.1 1.42 1.87 2.84 3.74 4.25 5.62 1.17 1.56 1.17 1.56 2.36 3.15 3 4.03 5.89 8.13 8.76 12.2 0.54 0.65 1.08 1.31 1.63 1.98h2c0.25 0.72 0.5 1.44 0.75 2.19 1.38 3.09 3.11 5.19 5.25 7.81 1.32 1.77 2.63 3.54 3.94 5.31 3.71 4.98 7.56 9.82 11.5 14.6 8.87 10.8 17.3 22 25.7 33.2 0.47 0.62 0.94 1.25 1.42 1.9 0.98 1.31 1.96 2.62 2.94 3.93 3.31 4.44 6.69 8.83 10.1 13.2 0.47 0.59 0.93 1.18 1.41 1.78 2.01 2.56 4.03 5.1 6.07 7.63 1.98 2.5 3.85 5.06 5.71 7.65 3.04 4.19 6.15 8.3 9.34 12.4 2.15 2.77 4.25 5.57 6.35 8.38 4.36 5.83 8.76 11.6 13.4 17.3 4.34 5.33 8.38 10.8 12.3 16.4 3.48 4.91 7.21 9.55 11.1 14.2 1.71 2.11 1.71 2.11 2.71 4.11h2c0.21 0.66 0.41 1.32 0.62 2 1.87 4.07 4.36 7.69 7.38 11h2c0.25 0.73 0.5 1.45 0.76 2.2 1.35 3.05 2.94 5.08 5.12 7.61 4.63 5.51 8.92 11.2 13.1 17.1 1.29 1.74 2.63 3.44 3.99 5.13h2c0.21 0.85 0.43 1.7 0.65 2.58 1.65 4.19 3.97 6.82 6.97 10.1 4.42 4.98 8.48 10 12.3 15.5 2.38 3.29 4.89 6.46 7.43 9.64 4.12 5.19 8.03 10.5 11.8 15.9 3.48 4.93 7.17 9.68 10.9 14.4 2.29 2.87 4.46 5.76 6.54 8.79 0.76 1.02 1.52 2.04 2.3 3.09h2c0.25 0.73 0.5 1.45 0.76 2.2 1.35 3.05 2.94 5.08 5.12 7.61 3.94 4.71 7.69 9.52 11.4 14.4 0.49 0.66 0.99 1.32 1.5 2 3.86 5.18 3.86 5.18 5.65 7.79 1.16 1.69 2.37 3.33 3.6 4.96h2c0.37 1.08 0.37 1.08 0.74 2.18 1.41 3.16 3.13 5.32 5.38 7.94 3.88 4.63 7.47 9.37 11 14.3 2.27 3.14 4.65 6.19 7.05 9.24 2.11 2.72 4.16 5.48 6.22 8.25 3.75 5.02 7.67 9.87 11.7 14.7 1.6 1.99 3.03 3.97 4.39 6.12 0.77 1.14 0.77 1.14 1.56 2.31h2c0.22 0.68 0.44 1.37 0.67 2.07 1.7 3.75 4.05 6.63 6.64 9.81 0.96 1.18 1.91 2.36 2.87 3.55 0.7 0.87 0.7 0.87 1.42 1.76 1.45 1.87 2.79 3.8 4.13 5.76 0.75 1 1.5 2.01 2.27 3.05h2c0.37 1.08 0.37 1.08 0.74 2.18 1.41 3.16 3.13 5.32 5.38 7.94 4.57 5.45 8.75 11.1 12.9 16.9 5.7 7.97 11.6 15.7 17.7 23.4 1.78 2.26 3.56 4.53 5.33 6.8 0.53 0.67 1.06 1.35 1.6 2.04 1.17 1.55 2.26 3.16 3.34 4.77h2c0.25 0.72 0.5 1.44 0.75 2.19 1.38 3.1 3.11 5.19 5.25 7.81 1.36 1.81 2.71 3.62 4.06 5.44 4.04 5.41 8.19 10.7 12.4 16 3.44 4.34 3.44 4.34 4.54 6.55h2c0.33 1.03 0.33 1.03 0.68 2.08 1.67 3.7 3.96 6.53 6.51 9.67 1 1.25 2 2.51 3 3.76 0.73 0.9 0.73 0.9 1.47 1.82 4.28 5.32 8.4 10.8 12.5 16.2 4.29 5.75 8.79 11.3 13.4 16.8 2.43 2.95 4.74 5.86 6.78 9.09 0.58 0.83 1.15 1.66 1.74 2.52h2c0.23 0.69 0.45 1.38 0.69 2.09 1.61 3.57 3.85 6.4 6.31 9.41l3 3.75c0.5 0.62 1 1.25 1.52 1.9 2.22 2.78 4.38 5.59 6.54 8.41 0.82 1.07 1.65 2.15 2.47 3.22 0.4 0.53 0.81 1.06 1.23 1.6 1.26 1.65 2.53 3.29 3.81 4.94 3.92 5.07 7.81 10.2 11.6 15.4 2.5 3.46 5.06 6.82 7.76 10.1 3.72 4.59 7.15 9.35 10.5 14.2 2.69 3.84 5.56 7.43 8.59 11 7.73 9.44 7.73 9.44 10.4 13.6 0.53 0.79 1.07 1.57 1.62 2.38h2c0.23 0.69 0.45 1.37 0.68 2.08 1.65 3.66 3.89 6.49 6.38 9.61 4.84 6.11 4.84 6.11 5.94 8.31h2c0.23 0.7 0.45 1.4 0.69 2.12 2.12 4.66 5.01 8.02 9.31 10.9 5.43 1.32 10.9 1.14 16.5 1.13 1.02 0 2.04 0.01 3.09 0.01 3.32 0 6.63-0.01 9.94-0.02h3.4c17.7-0.01 35.4-0.29 53.1-1.12-1.24-3.37-2.63-6.14-4.76-9.04-0.54-0.74-1.08-1.48-1.63-2.24-0.57-0.78-1.15-1.55-1.73-2.34-0.59-0.8-1.17-1.6-1.77-2.42-1.7-2.32-3.4-4.64-5.11-6.96-1.59-2.16-3.17-4.33-4.75-6.5-0.61-0.84-1.23-1.67-1.86-2.53-1.39-1.97-1.39-1.97-2.39-3.97h-2c-0.27-0.58-0.54-1.17-0.82-1.77-1.17-2.21-2.43-3.97-3.99-5.92-3.5-4.43-6.95-8.89-10.4-13.4-0.56-0.73-1.12-1.46-1.69-2.22-4.3-5.63-8.56-11.3-12.8-17-3.95-5.27-7.96-10.5-12-15.7-3.02-3.96-5.89-8.02-8.74-12.1-0.52-0.64-1.05-1.29-1.59-1.95h-2c-0.26-0.74-0.52-1.47-0.79-2.23-1.23-2.82-2.56-4.68-4.52-7.02-3.88-4.72-7.61-9.52-11.3-14.4-0.54-0.71-1.08-1.41-1.64-2.14-5.26-6.9-10.5-13.8-15.5-20.9-4.2-5.92-8.56-11.7-13-17.4-2.23-2.88-4.42-5.79-6.6-8.72-2.64-3.5-5.33-6.96-8.03-10.4-2.05-2.65-3.99-5.31-5.78-8.14-0.9-1.29-0.9-1.29-1.82-2.6h-2c-0.24-0.7-0.47-1.4-0.72-2.12-1.52-3.41-3.47-5.96-5.78-8.88-0.91-1.16-1.82-2.33-2.73-3.49-0.47-0.59-0.93-1.17-1.41-1.78-2.06-2.62-4.08-5.27-6.11-7.92-3.47-4.52-6.98-9.03-10.5-13.5-6.01-7.7-11.9-15.4-17.8-23.3-0.96-1.28-1.92-2.56-2.88-3.84-2.02-2.7-4.04-5.39-6.05-8.09-4.98-6.67-9.99-13.3-15.2-19.7-2.64-3.38-5.01-6.92-7.37-10.5-0.48-0.61-0.96-1.22-1.45-1.84h-2c-0.25-0.54-0.5-1.07-0.75-1.62-2.89-5.5-6.7-10.4-10.4-15.4-0.48-0.65-0.96-1.3-1.45-1.97-5.86-7.95-11.9-15.8-18-23.5-3.43-4.4-6.77-8.85-10.1-13.3-3.1-4.14-6.22-8.27-9.33-12.4-1.7-2.29-3.33-4.61-4.95-6.96-0.68-0.91-1.36-1.82-2.06-2.75h-2l-2-5h-2c-0.27-0.74-0.54-1.48-0.82-2.24-1.11-2.61-2.31-4.58-3.98-6.84-0.56-0.76-1.12-1.52-1.69-2.3-0.6-0.8-1.2-1.61-1.82-2.43-0.94-1.26-0.94-1.26-1.89-2.54-4.56-6.11-9.31-12-14.2-17.9-4.4-5.36-8.43-10.9-12.4-16.6-2.54-3.58-5.21-7.04-7.95-10.5-1.28-1.67-1.28-1.67-2.28-3.67h-2c-0.25-0.54-0.5-1.07-0.75-1.62-3.3-6.28-7.76-12-11.9-17.8-0.59-0.83-1.18-1.66-1.78-2.51-0.56-0.79-1.12-1.57-1.7-2.38-0.51-0.72-1.02-1.44-1.54-2.17-0.45-0.52-0.9-1.03-1.36-1.56h-2c-0.28-0.59-0.55-1.17-0.83-1.78-1.12-2.13-2.34-3.9-3.82-5.8-0.53-0.68-1.05-1.36-1.59-2.05-0.56-0.72-1.12-1.44-1.7-2.18-4.32-5.6-8.59-11.2-12.8-16.9-3.82-5.24-7.71-10.4-11.7-15.6-5.03-6.49-9.93-13.1-14.8-19.7-4.48-5.99-9.01-12-13.6-17.8-3.08-3.97-3.08-3.97-4.19-6.19h-2c-0.23-0.69-0.45-1.37-0.68-2.08-1.65-3.66-3.89-6.49-6.38-9.61-4.84-6.11-4.84-6.11-5.94-8.31h-2c-0.23-0.7-0.45-1.4-0.69-2.12-1.59-3.49-3.81-6.14-6.31-9-2.48-2.89-4.88-5.71-7-8.88h-2c-0.25-0.7-0.5-1.4-0.75-2.12-1.42-3.28-3.12-6.02-5.25-8.88h-2c-0.24-0.71-0.48-1.41-0.73-2.14-1.48-3.34-3.37-5.81-5.65-8.67-0.89-1.15-1.79-2.29-2.69-3.44-0.47-0.6-0.95-1.2-1.43-1.83-2.65-3.4-5.23-6.85-7.81-10.3-0.49-0.65-0.98-1.3-1.49-1.97-0.47-0.64-0.95-1.27-1.44-1.92-0.46-0.62-0.92-1.23-1.39-1.86-1.41-1.92-2.75-3.88-4.1-5.85-0.75-0.99-1.5-1.99-2.27-3.02h-2c-0.37-1.08-0.37-1.08-0.75-2.19-1.38-3.1-3.03-5.18-5.25-7.75-3.52-4.19-6.79-8.46-9.94-12.9-3.71-5.28-7.56-10.4-11.5-15.5-2.38-3.08-4.66-6.2-6.84-9.42-3.03-4.41-6.35-8.51-9.75-12.6-8.09-9.81-15.9-20-22.9-30.6h-2c-0.24-0.7-0.48-1.4-0.73-2.12-1.49-3.38-3.41-6-5.65-8.94-0.77-1.02-1.54-2.05-2.33-3.1-0.76-0.94-1.51-1.87-2.29-2.84-0.52-0.71-1.04-1.42-1.58-2.15-3.65-2.79-6.94-2.38-11.4-2.3-0.91 0-1.82-0.01-2.75-0.01-3 0.01-6 0.04-8.99 0.07-2.08 0.01-4.16 0.01-6.24 0.02-5.47 0.01-10.9 0.05-16.4 0.1-5.58 0.04-11.2 0.05-16.8 0.07-11 0.05-21.9 0.12-32.9 0.2z" fill="#FAFCFC"/>
</svg>
